<svg width="28" height="17" viewBox="0 0 28 17" fill="none" xmlns="http://www.w3.org/2000/svg">
<path d="M10.1554 17C7.01621 15.1379 4.44486 12.6097 2.67234 9.64246C0.899825 6.67522 -0.0183531 3.36187 0.000277981 0L6.94136 0.0305831C6.92841 2.36735 7.56662 4.67039 8.79866 6.73286C10.0307 8.79533 11.818 10.5526 14 11.8469L10.1554 17Z" fill="#EFECF6"/>
<path d="M24.43 17C21.5151 15.1379 19.1274 12.6097 17.4815 9.64246C15.8356 6.67522 14.983 3.36187 15.0003 0L21.4455 0.0305831C21.4335 2.36735 22.0261 4.67039 23.1702 6.73286C24.3142 8.79533 25.9738 10.5526 28 11.8469L24.43 17Z" fill="#EFECF6"/>
</svg>
