<svg width="476" height="711" viewBox="0 0 476 711" fill="none" xmlns="http://www.w3.org/2000/svg">
<path opacity="0.8" d="M275.489 0.775146H475.286L200.697 673H0.900391L275.489 0.775146Z" fill="url(#paint0_linear_754_2)"/>
<path d="M298.36 282.1L275.975 268.563V698.162L298.36 710.655V282.1Z" fill="url(#paint1_linear_754_2)"/>
<path d="M298.36 282.1L320.745 268.563V698.162L298.36 710.655V282.1Z" fill="url(#paint2_linear_754_2)"/>
<path d="M406.647 180.764C404.154 151.934 383.813 118.901 359.294 105.075L350.663 100.208C337.38 92.7154 325.331 92.2576 316.67 97.5418L156.914 192.145L245.798 356.074L406.656 260.808C406.825 259.031 406.911 257.191 406.914 255.289V186.572C406.908 184.658 406.819 182.722 406.647 180.764Z" fill="#C6B8FC"/>
<path d="M246.043 350.554V281.838C246.043 251.773 224.622 215.095 198.432 200.327L189.802 195.438C163.616 180.67 142.191 193.185 142.191 223.25V291.971C142.191 293.304 142.249 293.722 142.333 295.082L245.79 356.074C245.959 354.305 246.043 352.465 246.043 350.554Z" fill="#D5CAFF"/>
<path d="M230.653 327.272V276.521C230.653 254.315 214.829 227.224 195.487 216.317L189.114 212.72C169.773 201.818 153.949 211.06 153.949 233.247V284.017C153.949 285.016 153.991 285.314 154.051 286.35L230.466 331.378C230.592 330.043 230.653 328.691 230.653 327.272Z" fill="#AC99F6"/>
<path d="M157.679 288.46L223.453 251.355C223.453 251.355 230.635 267.586 230.635 273.834L230.457 331.355L157.679 288.46Z" fill="#8C74EB"/>
<path d="M120.703 309.593L157.723 287.238L230.653 329.645L192.271 351.96C170.902 364.384 144.519 364.428 123.108 352.076L121.116 350.926C102.901 339.5 105.064 319.037 120.703 309.593Z" fill="#AC99F6"/>
<path d="M192.271 351.96L230.652 329.644V336.644L192.271 358.96C170.902 371.384 144.519 371.915 123.108 359.563L121.115 358.413C110.905 352.563 108.401 344.799 108.125 337L108.198 329.875C108.193 329.508 108.197 329.14 108.21 328.771L108.198 329.875C108.316 337.837 112.784 345.261 121.115 350.926L123.108 352.075C144.519 364.428 170.902 364.384 192.271 351.96Z" fill="#8C74EB"/>
<mask id="mask0_754_2" style="mask-type:alpha" maskUnits="userSpaceOnUse" x="57" y="208" width="174" height="160">
<path d="M230.652 326.304V275.965C230.652 253.939 214.957 227.069 195.773 216.251L189.452 212.683C170.268 201.869 154.572 211.036 154.572 233.043L57.6504 275.965C57.6504 276.955 138.913 367.205 138.913 367.205L230.467 330.376C230.592 329.052 230.652 327.711 230.652 326.304Z" fill="#AC99F6"/>
</mask>
<g mask="url(#mask0_754_2)">
<path d="M131.433 251.681L218.589 197.58L240.921 274.979L152.847 328.775L131.433 251.681Z" fill="#EDECF1"/>
<mask id="mask1_754_2" style="mask-type:alpha" maskUnits="userSpaceOnUse" x="131" y="197" width="110" height="132">
<path fill-rule="evenodd" clip-rule="evenodd" d="M218.589 197.58L131.433 251.681L152.847 328.775L240.921 274.979L218.589 197.58ZM217.039 209.787L142.117 256.295L158.72 316.067L234.432 269.822L217.039 209.787Z" fill="#DAD7E5"/>
</mask>
<g mask="url(#mask1_754_2)">
<path d="M170.287 222.969L175.792 221.494L173.276 241.356L167.771 242.831L170.287 222.969Z" fill="#4994E9"/>
<path d="M185.721 293.437L191.226 291.962L188.71 311.823L183.206 313.299L185.721 293.437Z" fill="#5F77E9"/>
<path d="M157.086 231.207L162.591 229.732L160.076 249.594L154.571 251.069L157.086 231.207Z" fill="#5F77E9"/>
<path d="M172.521 301.675L178.025 300.2L175.51 320.061L170.005 321.536L172.521 301.675Z" fill="#4994E9"/>
<path d="M143.981 239.422L149.485 237.947L146.97 257.808L141.465 259.283L143.981 239.422Z" fill="#8C74EB"/>
<path d="M131.944 237.835L137.449 236.36L134.934 256.222L129.429 257.697L131.944 237.835Z" fill="#5F77E9"/>
<path d="M159.415 309.89L164.92 308.415L162.404 328.276L156.899 329.751L159.415 309.89Z" fill="#8C74EB"/>
<path d="M145.939 257.955L145.939 263.654L127.406 256.084L127.406 250.385L145.939 257.955Z" fill="#5F77E9"/>
<path d="M157.839 298.024L157.839 303.723L139.306 296.153L139.306 290.454L157.839 298.024Z" fill="#5F77E9"/>
<path d="M157.839 322.707L157.839 328.406L154.717 330.34L139.306 320.836L139.306 315.137L157.839 322.707Z" fill="#8C74EB"/>
<path d="M149.395 271.312L149.395 277.011L130.861 269.44L130.861 263.741L149.395 271.312Z" fill="#4994E9"/>
<path d="M153.414 284.668L153.414 290.367L134.881 282.796L134.881 277.097L153.414 284.668Z" fill="#8C74EB"/>
<path d="M157.079 310.141L158.873 316.573L142.055 309.703L142.055 304.004L157.079 310.141Z" fill="#4994E9"/>
<path d="M183.253 216.083L188.758 214.608L186.242 234.47L180.737 235.945L183.253 216.083Z" fill="#8C74EB"/>
<path d="M198.687 286.551L204.192 285.076L201.676 304.937L196.171 306.413L198.687 286.551Z" fill="#4994E9"/>
<path d="M222.997 271.045L228.502 269.57L225.986 289.431L220.481 290.906L222.997 271.045Z" fill="#4994E9"/>
<path d="M195.598 208.85L201.103 207.375L198.587 227.236L193.082 228.711L195.598 208.85Z" fill="#5F77E9"/>
<path d="M206.599 208.85L212.104 207.375L209.588 227.236L204.083 228.711L206.599 208.85Z" fill="#4994E9"/>
<path d="M211.032 279.317L216.537 277.842L214.021 297.704L208.516 299.179L211.032 279.317Z" fill="#8C74EB"/>
</g>
<path d="M124.164 276.859L211.32 222.758L247.739 245.156L233.652 300.157L145.578 353.953L124.164 276.859Z" fill="#EDECF1"/>
<mask id="mask2_754_2" style="mask-type:alpha" maskUnits="userSpaceOnUse" x="124" y="216" width="121" height="138">
<path fill-rule="evenodd" clip-rule="evenodd" d="M222.598 216.045L124.164 276.86L145.578 353.953L244.93 293.444L222.598 216.045ZM221.048 228.252L134.847 281.473L151.451 341.245L238.441 288.287L221.048 228.252Z" fill="#DAD7E5"/>
</mask>
<g mask="url(#mask2_754_2)">
<path d="M163.018 248.147L168.523 246.672L166.007 266.534L160.502 268.009L163.018 248.147Z" fill="#4994E9"/>
<path d="M178.452 318.615L183.957 317.14L181.441 337.002L175.936 338.477L178.452 318.615Z" fill="#5F77E9"/>
<path d="M149.817 256.385L155.322 254.91L152.807 274.772L147.302 276.247L149.817 256.385Z" fill="#5F77E9"/>
<path d="M165.252 326.853L170.756 325.378L168.241 345.239L162.736 346.715L165.252 326.853Z" fill="#4994E9"/>
<path d="M136.711 264.6L142.216 263.125L139.701 282.986L134.196 284.461L136.711 264.6Z" fill="#8C74EB"/>
<path d="M124.675 263.014L130.18 261.539L127.664 281.4L122.16 282.875L124.675 263.014Z" fill="#5F77E9"/>
<path d="M152.146 335.068L157.651 333.593L155.135 353.454L149.63 354.929L152.146 335.068Z" fill="#8C74EB"/>
<path d="M138.67 283.133L138.67 288.832L120.137 281.262L120.137 275.563L138.67 283.133Z" fill="#5F77E9"/>
<path d="M150.57 323.203L150.57 328.902L132.037 321.331L132.037 315.632L150.57 323.203Z" fill="#5F77E9"/>
<path d="M150.57 347.885L150.57 353.584L147.447 355.519L132.037 346.014L132.037 340.315L150.57 347.885Z" fill="#8C74EB"/>
<path d="M142.125 296.49L142.125 302.189L123.592 294.618L123.592 288.919L142.125 296.49Z" fill="#4994E9"/>
<path d="M146.145 309.846L146.145 315.545L127.611 307.975L127.611 302.276L146.145 309.846Z" fill="#8C74EB"/>
<path d="M149.809 335.319L151.604 341.751L134.786 334.881L134.786 329.182L149.809 335.319Z" fill="#4994E9"/>
<path d="M175.984 241.261L181.489 239.786L178.973 259.648L173.468 261.123L175.984 241.261Z" fill="#8C74EB"/>
<path d="M191.418 311.729L196.923 310.254L194.407 330.116L188.902 331.591L191.418 311.729Z" fill="#4994E9"/>
<path d="M215.728 296.223L221.232 294.748L218.717 314.609L213.212 316.084L215.728 296.223Z" fill="#4994E9"/>
<path d="M228.13 286.396L233.635 284.921L231.119 304.782L225.614 306.257L228.13 286.396Z" fill="#5F77E9"/>
<path d="M188.329 234.028L193.834 232.553L191.318 252.414L185.813 253.889L188.329 234.028Z" fill="#5F77E9"/>
<path d="M200.789 223.89L206.293 222.415L203.778 242.276L198.273 243.751L200.789 223.89Z" fill="#8C74EB"/>
<path d="M212.293 220.083L217.798 218.608L215.282 238.47L209.777 239.945L212.293 220.083Z" fill="#4994E9"/>
<path d="M203.763 304.496L209.268 303.021L206.752 322.882L201.247 324.357L203.763 304.496Z" fill="#8C74EB"/>
</g>
</g>
<defs>
<linearGradient id="paint0_linear_754_2" x1="-20.502" y1="647.267" x2="429.831" y2="36.979" gradientUnits="userSpaceOnUse">
<stop stop-color="#F9F8FB" stop-opacity="0"/>
<stop offset="0.166166" stop-color="#F7F5F9"/>
<stop offset="0.670265" stop-color="#F1EFF6"/>
<stop offset="1" stop-color="#F9F8FB" stop-opacity="0"/>
</linearGradient>
<linearGradient id="paint1_linear_754_2" x1="287.167" y1="489.609" x2="287.167" y2="710.655" gradientUnits="userSpaceOnUse">
<stop stop-color="#D5CAFF"/>
<stop offset="1" stop-color="white" stop-opacity="0"/>
</linearGradient>
<linearGradient id="paint2_linear_754_2" x1="309.553" y1="497.713" x2="309.553" y2="710.655" gradientUnits="userSpaceOnUse">
<stop stop-color="#C6B8FC"/>
<stop offset="1" stop-color="white" stop-opacity="0"/>
</linearGradient>
</defs>
</svg>
