<svg width="597" height="549" viewBox="0 0 597 549" fill="none" xmlns="http://www.w3.org/2000/svg">
<path d="M37.2461 79.2065C112.08 127.268 112.043 195.803 37.2461 252.282L37.2461 79.2065Z" fill="url(#paint0_linear_705_86)"/>
<path d="M37.2461 132.052C96.8884 171.841 99.8567 224.655 44.8134 265.433" stroke="url(#paint1_linear_705_86)"/>
<path d="M37.4756 113.735C56.8996 125.466 70.9308 138.833 79.5532 153.164" stroke="url(#paint2_linear_705_86)"/>
<path d="M467.565 0.236374C384.731 48.0602 252.089 49.611 165.947 4.90277L37.249 79.2064C114.686 128.94 119.369 209.748 0.484291 276.337L129.145 350.62C240.345 295.164 286.364 209.051 273.374 141.23C388.69 147.733 507.928 125.498 596.226 74.5189L467.565 0.236374Z" fill="url(#paint3_linear_705_86)"/>
<circle cx="79.665" cy="153.164" r="1.5" fill="#FFD231"/>
<path d="M273.02 338.394C388.336 344.898 507.574 322.662 595.871 271.684L595.871 74.3563C507.574 125.335 388.336 147.57 273.02 141.067C275.569 156.133 275.569 171.314 273.02 186.378L273.02 338.394Z" fill="url(#paint4_linear_705_86)"/>
<path d="M338.009 178.054C332.516 178.257 327.017 178.395 321.516 178.468L314.092 171.526C301.039 171.561 287.983 171.229 274.974 170.533" stroke="url(#paint5_linear_705_86)"/>
<circle cx="338.009" cy="178.027" r="1.5" fill="#BB9753"/>
<path d="M273.02 270.622C280.025 271.017 287.045 271.306 294.072 271.489" stroke="url(#paint6_linear_705_86)"/>
<path d="M273.02 262.327C280.025 262.722 287.045 263.011 294.072 263.194" stroke="url(#paint7_linear_705_86)"/>
<path d="M273.02 252.021C280.025 252.416 287.045 252.705 294.072 252.888" stroke="url(#paint8_linear_705_86)"/>
<path opacity="0.4" d="M413.65 248.438C413.65 248.438 368.891 279.489 308.137 282.36" stroke="#FCB23B" stroke-width="0.6"/>
<path d="M410.988 277.697L410.022 227.567C409.979 225.327 406.385 223.725 402.579 224.211C371.59 228.172 339.036 230.04 307.605 229.799C304.784 229.778 302.431 231.116 302.462 232.746L303.459 284.518C303.481 285.639 305.01 286.537 306.95 286.557C340.091 286.893 374.539 284.88 407.13 280.533C409.405 280.229 411.013 279.038 410.988 277.697Z" fill="url(#paint9_linear_705_86)" fill-opacity="0.04"/>
<path opacity="0.2" d="M414.075 279.852L413.13 233.804C413.084 231.566 409.491 229.965 405.687 230.454C375.302 234.358 344.343 236.228 313.472 236.049C309.944 236.029 307 237.703 307.042 239.741L307.99 285.923C308.028 287.791 310.576 289.287 313.809 289.31C345.769 289.529 377.828 287.553 409.252 283.397C412.098 283.021 414.11 281.529 414.075 279.852Z" fill="url(#paint10_linear_705_86)"/>
<path d="M311.734 289.565C346.112 289.914 380.625 287.723 414.36 283.008L413.65 248.438C413.65 248.438 368.891 279.489 308.137 282.36L308.243 287.527C308.266 288.648 309.795 289.545 311.734 289.565Z" fill="url(#paint11_linear_705_86)" fill-opacity="0.11"/>
<circle cx="395.891" cy="258.436" r="1.52118" transform="rotate(-1.17609 395.891 258.436)" fill="url(#paint12_linear_705_86)"/>
<path opacity="0.4" d="M352.966 245.456C341.953 246.009 330.915 246.301 319.883 246.332" stroke="url(#paint13_linear_705_86)" stroke-width="4" stroke-linecap="round"/>
<path opacity="0.3" d="M320.038 253.819C327.808 253.798 335.58 253.647 343.344 253.366" stroke="url(#paint14_linear_705_86)" stroke-width="4" stroke-linecap="round"/>
<path d="M355.474 317.929L357.349 282.026L377.055 281.621L383.032 306.675L377.605 308.449L376.04 347.909L373.666 347.957L370.122 325.704L368.935 325.728L366.506 357.843L363.42 357.906L361.172 317.812L355.474 317.929Z" fill="url(#paint15_linear_705_86)"/>
<circle cx="366.982" cy="271.044" r="6.2882" transform="rotate(-1.17609 366.982 271.044)" fill="url(#paint16_linear_705_86)"/>
<path d="M420.999 252.45C484.008 244.235 544.242 227.153 595.727 201.203M420.999 260.606C484.008 252.391 544.242 235.309 595.727 209.359M420.999 242.106C436.765 240.05 452.358 237.44 467.683 234.274L489.532 203.231C527.406 193.922 563.301 181.096 595.727 164.753M475.096 275.437C498.183 270.392 520.378 264.68 540.847 257.857L560.94 266.791C572.909 261.985 584.525 256.759 595.727 251.113M448.185 180.115C470.394 176.257 492.138 171.264 513.141 165.136L525.016 169.389C549.885 161.515 573.613 152.005 595.727 140.859" stroke="url(#paint17_linear_705_86)"/>
<path d="M253.95 326.423C266.346 328.349 284.506 328.606 297.913 328.606L310.742 315.845C315.267 315.885 319.849 315.857 324.482 315.764" stroke="url(#paint18_linear_705_86)"/>
<path d="M273.086 356.186C277.569 430.084 223.608 507.134 129.477 547.575L129.477 350.248C224.306 302.485 262.655 235.896 273.086 186.738L273.086 356.186Z" fill="url(#paint19_linear_705_86)"/>
<path d="M129.022 425.231C141.955 419.517 154.152 413.202 165.512 406.501" stroke="url(#paint20_linear_705_86)"/>
<path d="M129.022 415.203C160.207 401.425 191.198 382.18 212.394 364.427C225.363 353.566 231.029 348.156 242.114 334.708C258.337 315.026 267.823 299.518 272.793 280.457" stroke="url(#paint21_linear_705_86)"/>
<path d="M239.798 364.149C256.019 348.831 269.507 328.654 273.419 313.472" stroke="url(#paint22_linear_705_86)"/>
<path d="M239.102 374.762C254.456 361.08 267.609 343.204 272.979 328.694" stroke="url(#paint23_linear_705_86)"/>
<circle cx="239.699" cy="364.149" r="1.5" fill="#A1826C"/>
<circle cx="238.986" cy="374.757" r="1.5" transform="rotate(2.27985 238.986 374.757)" fill="#A1826C"/>
<path d="M192.674 432.809C193.488 445.799 200.362 451.527 208.022 445.619C215.683 439.712 221.228 424.384 220.414 411.404C219.599 398.415 212.726 392.686 205.065 398.594C197.405 404.502 191.859 419.82 192.674 432.809Z" fill="url(#paint24_linear_705_86)" fill-opacity="0.04"/>
<path opacity="0.4" d="M214.026 405.174C215.844 403.768 217.686 402.987 219.446 402.867C221.199 402.748 222.84 403.301 224.27 404.494C225.699 405.688 226.883 407.486 227.758 409.798C228.633 412.11 229.189 414.898 229.383 417.984L215.5 428.683L214.026 405.174Z" fill="url(#paint25_linear_705_86)"/>
<path opacity="0.2" d="M225.94 414.93C226.231 419.579 225.704 424.754 224.422 429.796C223.14 434.838 221.162 439.524 218.744 443.259C216.325 446.994 213.561 449.61 210.811 450.781C208.062 451.951 205.453 451.62 203.305 449.826C201.156 448.031 199.578 444.86 198.75 440.72C197.931 436.571 197.905 431.63 198.688 426.524C199.471 421.418 201.012 416.37 203.133 412.026C205.253 407.682 207.844 404.231 210.591 402.12L212.066 425.638L225.94 414.93Z" fill="url(#paint26_linear_705_86)"/>
<path d="M129.552 350.271L0.890625 275.989L0.890613 473.316L129.552 547.599L129.552 350.271Z" fill="#543DAD"/>
<circle cx="54.4531" cy="446.071" r="1.5" fill="#5B45AE"/>
<circle cx="61.9834" cy="450.026" r="1.5" fill="#5B45AE"/>
<circle cx="69.96" cy="454.958" r="1.5" fill="#5B45AE"/>
<circle cx="474.271" cy="275.588" r="1.5" fill="#F9CD36"/>
<circle cx="447.364" cy="180.339" r="1.5" fill="#B29166"/>
<circle cx="421.406" cy="252.437" r="1.5" fill="#FFD231"/>
<circle cx="421.406" cy="242.07" r="1.5" fill="#FFD231"/>
<circle cx="294.377" cy="252.888" r="1.5" fill="#FFD231"/>
<circle cx="421.406" cy="260.591" r="1.5" fill="#FFD231"/>
<circle cx="294.377" cy="271.409" r="1.5" fill="#FFD231"/>
<circle cx="325.119" cy="315.702" r="1.5" fill="#FFD231"/>
<circle cx="294.377" cy="263.114" r="1.5" fill="#FFD231"/>
<path d="M61.9834 450.026L61.9834 429.869" stroke="url(#paint27_linear_705_86)"/>
<circle cx="61.9834" cy="429.952" r="1.5" fill="#C39D5B"/>
<path d="M69.96 454.458L69.96 435.417" stroke="url(#paint28_linear_705_86)"/>
<circle cx="69.96" cy="434.917" r="1.5" fill="#C39D5B"/>
<path d="M256.118 410.094H238.758L237.518 423.321L225.118 415.881V418.361L236.278 427.868V443.161L243.718 486.561H249.505V447.708L256.118 410.094Z" fill="url(#paint29_linear_705_86)"/>
<circle cx="237.517" cy="400.415" r="6.61333" fill="url(#paint30_linear_705_86)"/>
<rect width="6.3049" height="11.0083" transform="matrix(0.866025 0.5 -2.20305e-08 1 51.1641 464.635)" fill="#5B45AE"/>
<rect width="88.029" height="65.0421" rx="5" transform="matrix(0.866025 0.5 -2.20305e-08 1 28.5244 335.487)" fill="url(#paint31_linear_705_86)" fill-opacity="0.04"/>
<rect opacity="0.15" width="87.9848" height="62.6339" rx="5" transform="matrix(0.866025 0.5 -2.20305e-08 1 21.8311 340.946)" fill="url(#paint32_linear_705_86)"/>
<path opacity="0.2" d="M36.6832 382.399C31.6602 379.499 27.5713 372.423 27.5713 366.622C27.5713 360.82 31.6684 358.464 36.6832 361.361C41.698 364.258 45.791 371.341 45.791 377.139C45.791 382.936 41.7021 385.3 36.6832 382.399ZM36.6832 364.401C33.1105 362.353 30.2057 364.02 30.2057 368.142C30.2057 372.263 33.1105 377.299 36.6832 379.359C40.2558 381.42 43.1606 379.745 43.1606 375.619C43.1606 371.493 40.2476 366.482 36.6832 364.401V364.401Z" fill="url(#paint33_linear_705_86)"/>
<path opacity="0.4" d="M36.6832 382.399C31.6602 379.499 27.5713 372.423 27.5713 366.622C27.5713 360.82 31.6684 358.464 36.6832 361.361V364.401C33.1105 362.353 30.2057 364.02 30.2057 368.142C30.2057 372.263 33.1105 377.299 36.6832 379.359C40.2558 381.42 43.1606 379.745 43.1606 375.619L45.791 377.139C45.7869 382.94 41.7021 385.3 36.6832 382.399Z" fill="url(#paint34_linear_705_86)"/>
<path opacity="0.2" d="M57.9291 394.674C52.9061 391.774 48.8213 384.694 48.8213 378.897C48.8213 373.099 52.9183 370.735 57.9291 373.636C62.9398 376.537 67.0369 383.612 67.0369 389.414C67.0369 395.215 62.9521 397.575 57.9291 394.674ZM57.9291 376.676C54.3564 374.627 51.4516 376.291 51.4516 380.417C51.4516 384.542 54.3564 389.569 57.9291 391.634C61.5017 393.699 64.4065 392.02 64.4065 387.894C64.4065 383.768 61.5017 378.737 57.9291 376.676Z" fill="url(#paint35_linear_705_86)"/>
<path opacity="0.4" d="M57.9291 394.674C52.9061 391.774 48.8213 384.694 48.8213 378.897C48.8213 373.099 52.9183 370.735 57.9291 373.636V376.676C54.3564 374.627 51.4516 376.291 51.4516 380.417C51.4516 384.542 54.3564 389.569 57.9291 391.634C59.2565 392.401 60.5307 392.675 61.6164 392.454L63.1201 395.818C61.5918 396.141 59.7973 395.752 57.9291 394.674Z" fill="url(#paint36_linear_705_86)"/>
<path opacity="0.2" d="M79.181 406.941C74.158 404.04 70.0732 396.96 70.0732 391.163C70.0732 385.366 74.1703 383.002 79.181 385.902C84.1917 388.803 88.3052 395.879 88.3052 401.68C88.3052 407.482 84.2081 409.842 79.181 406.941ZM79.181 388.942C75.6125 386.894 72.7036 388.557 72.7036 392.683C72.7036 396.809 75.6125 401.836 79.181 403.901C82.7496 405.966 85.6585 404.286 85.6585 400.16C85.6585 396.034 82.7537 391.003 79.181 388.942Z" fill="url(#paint37_linear_705_86)"/>
<path opacity="0.4" d="M71.2532 397.03C70.5119 395.161 70.1122 393.174 70.0732 391.163C70.0732 385.362 74.1703 383.002 79.181 385.902V388.942C75.6125 386.894 72.7036 388.557 72.7036 392.683C72.7347 394.112 73.0234 395.523 73.5558 396.85L71.2532 397.03Z" fill="url(#paint38_linear_705_86)"/>
<rect width="24.5372" height="8.86036" transform="matrix(0.866025 0.5 -2.20305e-08 1 51.1641 451.052)" fill="#5B45AE"/>
<path d="M54.4531 445.217L54.4531 425.061" stroke="url(#paint39_linear_705_86)"/>
<rect width="6.28945" height="11.0129" transform="matrix(0.866025 0.5 -2.20305e-08 1 59.1035 468.966)" fill="#5B45AE"/>
<rect width="6.31122" height="11.0959" transform="matrix(0.866025 0.5 -2.20305e-08 1 66.9482 473.31)" fill="#5B45AE"/>
<path d="M129.54 500.959C140.007 496.462 149.982 491.383 159.437 485.806L170.966 450.902C174.998 448.704 181.649 444.104 185.475 441.694" stroke="url(#paint40_linear_705_86)"/>
<path d="M79.2383 471.898L97.2725 482.31L129.54 500.958" stroke="url(#paint41_linear_705_86)"/>
<path d="M113.107 405.512L129.559 415.011" stroke="url(#paint42_linear_705_86)"/>
<path d="M113.107 415.494L129.559 424.992" stroke="url(#paint43_linear_705_86)"/>
<circle cx="113.107" cy="405.512" r="1.5" fill="#C39D5B"/>
<ellipse cx="13.6592" cy="356.988" rx="1.5" ry="1.67666" fill="#C39D5B"/>
<ellipse cx="13.6592" cy="345.85" rx="1.5" ry="1.56658" fill="#C39D5B"/>
<circle cx="113.293" cy="415.698" r="1.5" fill="#C39D5B"/>
<ellipse cx="185.061" cy="442.174" rx="1.5" ry="1.92633" fill="#614B92"/>
<ellipse cx="165.493" cy="406.502" rx="1.5" ry="1.67997" fill="#614B92"/>
<ellipse cx="78.6836" cy="471.68" rx="1.30276" ry="1.5" fill="#5B45AE"/>
<path d="M45.5398 452.958L13.2728 434.31L0.954102 427.198" stroke="url(#paint44_linear_705_86)"/>
<ellipse cx="45.5401" cy="452.958" rx="1.30276" ry="1.5" fill="#5B45AE"/>
<circle cx="54.4531" cy="425.698" r="1.5" fill="#C39D5B"/>
<path d="M13.659 356.988L0.818359 349.313" stroke="url(#paint45_linear_705_86)"/>
<path d="M13.659 345.85L0.818359 338.176" stroke="url(#paint46_linear_705_86)"/>
<defs>
<linearGradient id="paint0_linear_705_86" x1="53.3828" y1="146.5" x2="88.8266" y2="145.537" gradientUnits="userSpaceOnUse">
<stop stop-color="#543DAD"/>
<stop offset="1" stop-color="#4934A0"/>
</linearGradient>
<linearGradient id="paint1_linear_705_86" x1="36.5141" y1="286.382" x2="-43.7061" y2="165.594" gradientUnits="userSpaceOnUse">
<stop stop-color="#FFD231"/>
<stop offset="1" stop-color="#6857AF" stop-opacity="0"/>
</linearGradient>
<linearGradient id="paint2_linear_705_86" x1="45.137" y1="132.812" x2="53.0902" y2="119.094" gradientUnits="userSpaceOnUse">
<stop stop-color="#FFD231"/>
<stop offset="1" stop-color="#6857AF" stop-opacity="0"/>
</linearGradient>
<linearGradient id="paint3_linear_705_86" x1="461.666" y1="-3.16899" x2="225.341" y2="406.158" gradientUnits="userSpaceOnUse">
<stop stop-color="#8C74EB"/>
<stop offset="1" stop-color="#8C74EB"/>
</linearGradient>
<linearGradient id="paint4_linear_705_86" x1="595.381" y1="191" x2="378.117" y2="354.843" gradientUnits="userSpaceOnUse">
<stop stop-color="#4E39A2"/>
<stop offset="1" stop-color="#412E8D"/>
</linearGradient>
<linearGradient id="paint5_linear_705_86" x1="338.04" y1="178.272" x2="297.794" y2="207.879" gradientUnits="userSpaceOnUse">
<stop stop-color="#BC9852"/>
<stop offset="1" stop-color="#FFD231" stop-opacity="0"/>
</linearGradient>
<linearGradient id="paint6_linear_705_86" x1="294.072" y1="271.56" x2="276.638" y2="281.121" gradientUnits="userSpaceOnUse">
<stop stop-color="#FFD231"/>
<stop offset="1" stop-color="#FFD231" stop-opacity="0"/>
</linearGradient>
<linearGradient id="paint7_linear_705_86" x1="294.072" y1="263.265" x2="276.638" y2="272.826" gradientUnits="userSpaceOnUse">
<stop stop-color="#FFD231"/>
<stop offset="1" stop-color="#FFD231" stop-opacity="0"/>
</linearGradient>
<linearGradient id="paint8_linear_705_86" x1="294.072" y1="252.959" x2="276.638" y2="262.52" gradientUnits="userSpaceOnUse">
<stop stop-color="#FFD231"/>
<stop offset="1" stop-color="#FFD231" stop-opacity="0"/>
</linearGradient>
<linearGradient id="paint9_linear_705_86" x1="340.365" y1="228.155" x2="356.744" y2="271.739" gradientUnits="userSpaceOnUse">
<stop stop-color="#FFD231"/>
<stop offset="0.0001" stop-color="#FEE27F"/>
<stop offset="1" stop-color="#FEF2C9"/>
</linearGradient>
<linearGradient id="paint10_linear_705_86" x1="338.541" y1="204.412" x2="334.735" y2="285.8" gradientUnits="userSpaceOnUse">
<stop stop-color="#FFD231"/>
<stop offset="1" stop-color="#FFD231" stop-opacity="0.08"/>
</linearGradient>
<linearGradient id="paint11_linear_705_86" x1="366.771" y1="264.813" x2="373.694" y2="287.003" gradientUnits="userSpaceOnUse">
<stop stop-color="#E5AE20"/>
<stop offset="0.859375" stop-color="#FBDC8C" stop-opacity="0"/>
</linearGradient>
<linearGradient id="paint12_linear_705_86" x1="395.891" y1="256.915" x2="395.891" y2="259.957" gradientUnits="userSpaceOnUse">
<stop stop-color="#BE8A7A"/>
<stop offset="1" stop-color="#795587"/>
</linearGradient>
<linearGradient id="paint13_linear_705_86" x1="330.659" y1="243.713" x2="330.715" y2="250.605" gradientUnits="userSpaceOnUse">
<stop stop-color="#FFD231"/>
<stop offset="1" stop-color="#FFD231" stop-opacity="0"/>
</linearGradient>
<linearGradient id="paint14_linear_705_86" x1="327.595" y1="252.029" x2="327.6" y2="256.881" gradientUnits="userSpaceOnUse">
<stop stop-color="#FFD231"/>
<stop offset="1" stop-color="#FFD231" stop-opacity="0"/>
</linearGradient>
<linearGradient id="paint15_linear_705_86" x1="368.627" y1="281.794" x2="370.186" y2="357.767" gradientUnits="userSpaceOnUse">
<stop stop-color="#FFD231"/>
<stop offset="1" stop-color="#FCB23B"/>
</linearGradient>
<linearGradient id="paint16_linear_705_86" x1="366.982" y1="264.756" x2="366.982" y2="277.332" gradientUnits="userSpaceOnUse">
<stop stop-color="#FFD231"/>
<stop offset="1" stop-color="#FCB23B"/>
</linearGradient>
<linearGradient id="paint17_linear_705_86" x1="431.216" y1="242.993" x2="575.164" y2="68.6685" gradientUnits="userSpaceOnUse">
<stop stop-color="#FFD231"/>
<stop offset="1" stop-color="#6857AF" stop-opacity="0"/>
</linearGradient>
<linearGradient id="paint18_linear_705_86" x1="327.118" y1="316.795" x2="268.041" y2="286.985" gradientUnits="userSpaceOnUse">
<stop stop-color="#FFD231"/>
<stop offset="1" stop-color="#6857AF" stop-opacity="0"/>
</linearGradient>
<linearGradient id="paint19_linear_705_86" x1="287.885" y1="337.5" x2="221.81" y2="503.648" gradientUnits="userSpaceOnUse">
<stop stop-color="#4E39A2"/>
<stop offset="1" stop-color="#412E8D"/>
</linearGradient>
<linearGradient id="paint20_linear_705_86" x1="166.494" y1="405.313" x2="164.884" y2="402.967" gradientUnits="userSpaceOnUse">
<stop stop-color="#715993" stop-opacity="0.58"/>
<stop offset="1" stop-color="#D2AC54"/>
</linearGradient>
<linearGradient id="paint21_linear_705_86" x1="263.054" y1="304.02" x2="128.301" y2="303.962" gradientUnits="userSpaceOnUse">
<stop stop-color="#715993" stop-opacity="0.18"/>
<stop offset="1" stop-color="#D5AE52"/>
</linearGradient>
<linearGradient id="paint22_linear_705_86" x1="274.325" y1="313.494" x2="226.364" y2="327.924" gradientUnits="userSpaceOnUse">
<stop stop-color="#715993" stop-opacity="0.18"/>
<stop offset="1" stop-color="#AB8B65"/>
</linearGradient>
<linearGradient id="paint23_linear_705_86" x1="275.079" y1="325.126" x2="226.72" y2="338.164" gradientUnits="userSpaceOnUse">
<stop stop-color="#715993" stop-opacity="0.18"/>
<stop offset="1" stop-color="#AB8B65"/>
</linearGradient>
<linearGradient id="paint24_linear_705_86" x1="197.165" y1="415.574" x2="213.073" y2="416.922" gradientUnits="userSpaceOnUse">
<stop stop-color="#FFD231"/>
<stop offset="0.0001" stop-color="#FEE27F"/>
<stop offset="1" stop-color="#FEF2C9"/>
</linearGradient>
<linearGradient id="paint25_linear_705_86" x1="208.201" y1="410.932" x2="225.702" y2="416.722" gradientUnits="userSpaceOnUse">
<stop stop-color="#F8CC35"/>
<stop offset="1" stop-color="#FCB23B" stop-opacity="0.12"/>
</linearGradient>
<linearGradient id="paint26_linear_705_86" x1="193.288" y1="409.874" x2="224.217" y2="431.771" gradientUnits="userSpaceOnUse">
<stop stop-color="#FCBA3B"/>
<stop offset="1" stop-color="#FFD231" stop-opacity="0.08"/>
</linearGradient>
<linearGradient id="paint27_linear_705_86" x1="-150848" y1="-86677.6" x2="-150839" y2="-86692.3" gradientUnits="userSpaceOnUse">
<stop stop-color="#5B45AE"/>
<stop offset="1" stop-color="#C39D5B"/>
</linearGradient>
<linearGradient id="paint28_linear_705_86" x1="-150840" y1="-86673.1" x2="-150832" y2="-86687" gradientUnits="userSpaceOnUse">
<stop stop-color="#5B45AE"/>
<stop offset="1" stop-color="#C39D5B"/>
</linearGradient>
<linearGradient id="paint29_linear_705_86" x1="240.618" y1="410.094" x2="240.618" y2="486.561" gradientUnits="userSpaceOnUse">
<stop stop-color="#FFD231"/>
<stop offset="1" stop-color="#FCB23B"/>
</linearGradient>
<linearGradient id="paint30_linear_705_86" x1="237.517" y1="393.801" x2="237.517" y2="407.028" gradientUnits="userSpaceOnUse">
<stop stop-color="#FFD231"/>
<stop offset="1" stop-color="#FCB23B"/>
</linearGradient>
<linearGradient id="paint31_linear_705_86" x1="16.8673" y1="23.4671" x2="60.3945" y2="38.8272" gradientUnits="userSpaceOnUse">
<stop stop-color="#FFD231"/>
<stop offset="0.0001" stop-color="#FEE27F"/>
<stop offset="1" stop-color="#FEF2C9"/>
</linearGradient>
<linearGradient id="paint32_linear_705_86" x1="-9.8268" y1="8.49378" x2="21.776" y2="69.0292" gradientUnits="userSpaceOnUse">
<stop stop-color="#F8CC35" stop-opacity="0.966458"/>
<stop offset="1" stop-color="#FFD231" stop-opacity="0.08"/>
</linearGradient>
<linearGradient id="paint33_linear_705_86" x1="25.5364" y1="363.311" x2="39.9767" y2="378.566" gradientUnits="userSpaceOnUse">
<stop stop-color="#FCB23B"/>
<stop offset="1" stop-color="#FFD231" stop-opacity="0.08"/>
</linearGradient>
<linearGradient id="paint34_linear_705_86" x1="19.8271" y1="366.892" x2="39.0079" y2="377.384" gradientUnits="userSpaceOnUse">
<stop stop-color="#F8CC35"/>
<stop offset="1" stop-color="#FCB23B" stop-opacity="0.12"/>
</linearGradient>
<linearGradient id="paint35_linear_705_86" x1="46.7868" y1="375.585" x2="61.2285" y2="390.837" gradientUnits="userSpaceOnUse">
<stop stop-color="#FCB23B"/>
<stop offset="1" stop-color="#FFD231" stop-opacity="0.08"/>
</linearGradient>
<linearGradient id="paint36_linear_705_86" x1="42.7436" y1="379.17" x2="59.2605" y2="386.256" gradientUnits="userSpaceOnUse">
<stop stop-color="#F8CC35"/>
<stop offset="1" stop-color="#FCB23B" stop-opacity="0.12"/>
</linearGradient>
<linearGradient id="paint37_linear_705_86" x1="68.037" y1="387.852" x2="82.4779" y2="403.117" gradientUnits="userSpaceOnUse">
<stop stop-color="#FCB23B"/>
<stop offset="1" stop-color="#FFD231" stop-opacity="0.08"/>
</linearGradient>
<linearGradient id="paint38_linear_705_86" x1="66.202" y1="388.222" x2="76.0082" y2="393.32" gradientUnits="userSpaceOnUse">
<stop stop-color="#F8CC35"/>
<stop offset="1" stop-color="#FCB23B" stop-opacity="0.12"/>
</linearGradient>
<linearGradient id="paint39_linear_705_86" x1="-150855" y1="-86682.4" x2="-150847" y2="-86697.1" gradientUnits="userSpaceOnUse">
<stop stop-color="#5B45AE"/>
<stop offset="1" stop-color="#C39D5B"/>
</linearGradient>
<linearGradient id="paint40_linear_705_86" x1="184.001" y1="443.788" x2="119.437" y2="485.536" gradientUnits="userSpaceOnUse">
<stop stop-color="#715993" stop-opacity="0.58"/>
<stop offset="1" stop-color="#D5AE53"/>
</linearGradient>
<linearGradient id="paint41_linear_705_86" x1="79.2383" y1="472.099" x2="104.996" y2="515.829" gradientUnits="userSpaceOnUse">
<stop stop-color="#5B45AE"/>
<stop offset="1" stop-color="#D6AF51"/>
</linearGradient>
<linearGradient id="paint42_linear_705_86" x1="112.027" y1="407.73" x2="115.294" y2="418.523" gradientUnits="userSpaceOnUse">
<stop stop-color="#C39D5A"/>
<stop offset="1" stop-color="#D5AE52"/>
</linearGradient>
<linearGradient id="paint43_linear_705_86" x1="112.027" y1="417.712" x2="115.294" y2="428.504" gradientUnits="userSpaceOnUse">
<stop stop-color="#C39D5A"/>
<stop offset="1" stop-color="#D5AE52"/>
</linearGradient>
<linearGradient id="paint44_linear_705_86" x1="-4.76173" y1="424.099" x2="20.3322" y2="467.488" gradientUnits="userSpaceOnUse">
<stop stop-color="#FFD231"/>
<stop offset="0.987798" stop-color="#5B45AE"/>
</linearGradient>
<linearGradient id="paint45_linear_705_86" x1="-1.94669" y1="349.313" x2="-2.77113" y2="355.361" gradientUnits="userSpaceOnUse">
<stop stop-color="#DAB144" stop-opacity="0.5"/>
<stop offset="1" stop-color="#C39D5A"/>
</linearGradient>
<linearGradient id="paint46_linear_705_86" x1="-1.94669" y1="338.176" x2="-2.77113" y2="344.223" gradientUnits="userSpaceOnUse">
<stop stop-color="#DAB144" stop-opacity="0.5"/>
<stop offset="1" stop-color="#C39D5A"/>
</linearGradient>
</defs>
</svg>
