<svg width="44" height="45" viewBox="0 0 44 45" fill="none" xmlns="http://www.w3.org/2000/svg">
<path d="M32.7085 28.8415C36.2294 30.4978 39.2994 32.9763 41.6589 36.0674L35.7792 40.5432C34.1392 38.3947 32.0052 36.672 29.558 35.5207C27.1106 34.3695 24.4216 33.8235 21.7185 33.9289C19.1698 33.9622 16.6614 34.5654 14.3827 35.7068C12.0909 36.8546 10.0917 38.5093 8.53699 40.5452L2.6582 36.0682C4.89478 33.1392 7.77112 30.7585 11.0682 29.1072C14.3652 27.4559 17.9961 26.5813 21.6844 26.5428C25.4875 26.4344 29.2643 27.2214 32.7085 28.8415Z" fill="#4994E9"/>
<path d="M11.6079 17.1586C8.08704 15.5023 5.01697 13.0238 2.65747 9.93274L8.53723 5.45694C10.1772 7.60536 12.3112 9.3281 14.7584 10.4794C17.2058 11.6306 19.895 12.1834 22.5981 12.078C25.1469 12.0447 27.655 11.4347 29.9337 10.2933C32.2255 9.14549 34.2247 7.49077 35.7794 5.45487L41.6582 9.93189C39.4216 12.8609 36.5453 15.2416 33.2482 16.8929C29.9512 18.5442 26.3203 19.4225 22.632 19.4611C18.8289 19.5694 15.0521 18.7786 11.6079 17.1586Z" fill="#4994E9"/>
</svg>
