<svg width="45" height="44" viewBox="0 0 45 44" fill="none" xmlns="http://www.w3.org/2000/svg">
<path d="M13.7431 9.02492C14.4264 7.43133 15.5616 6.07287 17.0085 5.11745C18.4555 4.16203 20.1506 3.65153 21.8845 3.64905C23.6184 3.64657 25.315 4.15222 26.7647 5.1035C28.2143 6.05478 29.3534 7.40999 30.0412 9.00162L25.8603 10.8084C25.5256 10.0338 24.9713 9.37434 24.2658 8.91142C23.5604 8.4485 22.7348 8.20244 21.891 8.20364C21.0473 8.20485 20.2224 8.45327 19.5182 8.91821C18.8141 9.38314 18.2617 10.0442 17.9292 10.8197L13.7431 9.02492Z" fill="#8C74EB"/>
<path d="M6.66602 35.3187V28.4501C6.66602 28.4501 8.318 30.2311 9.65129 31.1933C10.8285 32.0427 12.1574 32.8531 13.2211 33.2192C17.4113 34.6618 18.8646 34.8573 22.6885 34.8573C26.5125 34.8573 27.9793 34.6618 32.1696 33.2192C33.2332 32.8531 34.5622 32.0427 35.7393 31.1933C37.0726 30.2311 38.7246 28.4501 38.7246 28.4501V35.3187C38.7246 35.3187 37.4615 36.3227 36.5902 36.875C35.1031 37.8175 34.1899 38.2422 32.5379 38.851C29.0393 40.1403 26.575 40.1398 22.7058 40.1392L22.6885 40.1392L22.6513 40.1391C18.7988 40.1385 16.3452 40.1381 12.8527 38.851C11.2007 38.2422 10.2875 37.8175 8.80047 36.875C7.92915 36.3227 6.66602 35.3187 6.66602 35.3187Z" fill="#367BE2"/>
<path fill-rule="evenodd" clip-rule="evenodd" d="M6.68164 18.0604L6.68945 12.7919H38.6895L38.7227 18.0604C38.6952 18.5922 38.6531 18.976 38.5665 19.5961C38.2733 21.6947 37.4627 23.5062 36.1458 25.1718C32.3649 29.2137 27.7444 29.9213 22.7023 29.9213C17.6599 29.9213 13.0394 29.2137 9.25851 25.1718C7.94156 23.5062 7.13101 21.6947 6.83783 19.5961C6.75119 18.976 6.70908 18.5922 6.68164 18.0604ZM32.3576 18.12L13.0417 18.0795C13.154 18.9969 13.2349 19.6571 13.7046 20.5472C15.4479 23.8524 19.3945 24.2006 22.7023 24.2006C26.0098 24.2006 29.9564 23.8524 31.6997 20.5472C32.1788 19.639 32.2411 19.0702 32.3576 18.12Z" fill="#8C74EB"/>
</svg>
