<svg width="44" height="44" viewBox="0 0 44 44" fill="none" xmlns="http://www.w3.org/2000/svg">
<path d="M31.8066 27.8593C31.6251 29.7393 30.853 31.9579 29.6767 33.4399C28.4508 34.9844 26.7875 36.1232 24.9042 36.7076C23.0209 37.292 21.0051 37.2947 19.1202 36.7155C17.2353 36.1362 15.569 35.0019 14.3389 33.4608C13.1087 31.9196 12.3721 30.0433 12.2251 28.0769C12.0781 26.1105 12.5276 24.1454 13.515 22.4385C14.4972 20.7405 15.9661 19.3765 17.7316 18.5225C16.6939 17.2925 15.7849 15.952 15.0227 14.521C14.6995 13.9143 14.4046 13.2949 14.1384 12.6646C11.4101 14.1254 9.13807 16.3203 7.58364 19.0077C5.9061 21.9078 5.1423 25.2466 5.39204 28.5876C5.64178 31.9287 6.89345 35.1167 8.9835 37.7353C11.0736 40.3538 13.9048 42.2811 17.1074 43.2653C20.31 44.2494 23.7349 44.2448 26.9348 43.2519C30.1347 42.259 32.9607 40.3241 35.0436 37.6999C37.1266 35.0757 38.3696 31.8842 38.6102 28.5425C38.7909 26.0333 38.4002 23.527 37.4808 21.2082L31.8066 27.8593Z" fill="#8C74EB"/>
<path d="M19.7478 11.2424C21.2564 14.4947 23.5035 17.3392 26.2996 19.5551C27.3354 20.4544 28.4195 21.2265 29.6852 21.9909L34.1584 16.6272C33.4228 16.1296 32.3082 15.3702 30.8105 14.2166C28.7866 12.6576 27.1631 10.6308 26.0835 8.30345C24.9006 5.75327 24.4149 2.93742 24.6725 0.142456L17.6533 0.389612C17.4554 4.11672 18.1712 7.84358 19.7478 11.2424Z" fill="#4994E9"/>
</svg>
