<svg width="44" height="45" viewBox="0 0 44 45" fill="none" xmlns="http://www.w3.org/2000/svg">
<path d="M2.60742 14.2611C2.60742 12.7267 2.90965 11.2073 3.49685 9.78968C4.08404 8.37206 4.94471 7.08397 6.02972 5.99897C7.11472 4.91397 8.4028 4.0533 9.82042 3.46611C11.238 2.87891 12.7574 2.57668 14.2919 2.57668C15.8263 2.57669 17.3457 2.87891 18.7633 3.46611C20.1809 4.05331 21.469 4.91398 22.554 5.99898C23.639 7.08399 24.4997 8.37207 25.0869 9.78969C25.6741 11.2073 25.9763 12.7267 25.9763 14.2611L18.2806 14.2611C18.2806 13.7373 18.1774 13.2186 17.977 12.7347C17.7765 12.2508 17.4827 11.811 17.1123 11.4406C16.742 11.0702 16.3022 10.7764 15.8183 10.576C15.3344 10.3755 14.8157 10.2724 14.2919 10.2724C13.768 10.2724 13.2494 10.3755 12.7654 10.576C12.2815 10.7764 11.8418 11.0702 11.4714 11.4406C11.101 11.811 10.8072 12.2507 10.6067 12.7347C10.4063 13.2186 10.3031 13.7373 10.3031 14.2611L2.60742 14.2611Z" fill="#8C74EB"/>
<path d="M21.7289 22.5233C20.3702 21.1645 19.3676 19.4917 18.8098 17.6529C18.252 15.8142 18.1563 13.8662 18.5312 11.9816C18.906 10.097 19.7399 8.33395 20.9589 6.84859C22.1779 5.36324 23.7444 4.20144 25.5196 3.46611C27.2949 2.73078 29.2241 2.44461 31.1363 2.63295C33.0486 2.82129 34.8849 3.47833 36.4826 4.54587C38.0803 5.6134 39.39 7.05849 40.2958 8.75311C41.2016 10.4477 41.6755 12.3396 41.6755 14.2611L33.9798 14.2611C33.9798 13.6052 33.8181 12.9593 33.5089 12.3808C33.1996 11.8023 32.7525 11.309 32.2071 10.9446C31.6617 10.5802 31.0348 10.3559 30.382 10.2916C29.7292 10.2273 29.0707 10.325 28.4646 10.576C27.8586 10.827 27.3239 11.2236 26.9077 11.7307C26.4916 12.2377 26.2069 12.8396 26.079 13.483C25.951 14.1263 25.9837 14.7913 26.1741 15.419C26.3645 16.0467 26.7068 16.6178 27.1706 17.0816L21.7289 22.5233Z" fill="#8C74EB"/>
<path d="M38.0677 19.4636C38.0677 31.6994 24.5806 38.9365 22.0145 40.2027C21.7495 40.3335 21.4463 40.3308 21.1853 40.1923C18.7569 38.9036 6.37305 31.7301 6.37305 19.4636" stroke="#4994E9" stroke-width="7.3"/>
</svg>
