<svg width="44" height="44" viewBox="0 0 44 44" fill="none" xmlns="http://www.w3.org/2000/svg">
<path d="M20.8155 16.338C18.4885 19.4578 15.4446 21.9715 11.9412 23.6668C8.43777 25.3621 4.57771 26.1891 0.687251 26.0779L0.898505 18.6877C3.60268 18.765 6.28573 18.1902 8.72089 17.0118C11.1561 15.8335 13.2718 14.0862 14.8892 11.9177L20.8155 16.338Z" fill="#8C74EB"/>
<path d="M29.6807 21.0289C26.337 18.8045 23.5982 15.7845 21.7103 12.24C19.8223 8.69551 18.8443 4.73757 18.8642 0.72168L26.2573 0.758213C26.2435 3.54958 26.9233 6.30066 28.2355 8.76436C29.5478 11.2281 31.4515 13.3272 33.7756 14.8733L29.6807 21.0289Z" fill="#4994E9"/>
<path d="M25.6263 43.5677C25.6263 39.8087 24.7523 36.1011 23.0733 32.7379C21.3943 29.3747 18.9563 26.4479 15.9519 24.1887L11.5087 30.0978C13.597 31.6681 15.2916 33.7024 16.4586 36.0401C17.6256 38.3778 18.2331 40.9549 18.2331 43.5677H25.6263Z" fill="#4994E9"/>
<path d="M43.1102 19.3214C39.4217 19.3214 35.7818 20.1629 32.4676 21.782C29.1535 23.401 26.2523 25.7548 23.9851 28.6642L29.8168 33.2086C31.3926 31.1863 33.4091 29.5502 35.7128 28.4249C38.0164 27.2995 40.5464 26.7146 43.1102 26.7146L43.1102 19.3214Z" fill="#8C74EB"/>
</svg>
