<svg width="45" height="44" viewBox="0 0 45 44" fill="none" xmlns="http://www.w3.org/2000/svg">
<path d="M32.0989 17.9782C31.8565 16.4174 31.4283 14.8874 30.8211 13.4214C30.0137 11.4723 28.9026 9.66708 27.5317 8.07183C27.206 7.69288 26.8657 7.32579 26.5114 6.97142C25.2801 5.74015 23.8951 4.67866 22.3936 3.81177C20.892 4.67866 19.507 5.74015 18.2758 6.97142C17.9214 7.32579 17.5811 7.69288 17.2555 8.07183C15.8846 9.66708 14.7734 11.4723 13.966 13.4214C13.3541 14.8988 12.924 16.4411 12.6826 18.0145C14.7624 18.5879 16.7333 19.4956 18.5188 20.7004C18.5594 18.9978 18.9144 17.3165 19.5668 15.7413C20.2305 14.1389 21.1897 12.6765 22.3936 11.4299C23.5974 12.6765 24.5566 14.1389 25.2203 15.7413C25.8611 17.2882 26.2149 18.9376 26.2658 20.6089C28.0534 19.4241 30.023 18.535 32.0989 17.9782Z" fill="#8C74EB"/>
<path d="M24.714 27.9543C28.0918 24.1264 32.7502 21.6625 37.8154 21.0248L38.6138 27.3674C35.0931 27.8106 31.8551 29.5232 29.5073 32.1839C27.5834 34.3643 26.3656 37.0584 25.9877 39.9128H18.7939C18.4165 37.0622 17.2014 34.3712 15.2817 32.1923C12.937 29.531 9.70217 27.8162 6.18359 27.3694L6.98894 21.0277C12.0511 21.6706 16.7049 24.1376 20.0782 27.9663C20.9528 28.9589 21.7256 30.0254 22.3908 31.1496C23.0587 30.0209 23.8351 28.9503 24.714 27.9543Z" fill="#367BE2"/>
</svg>
