<svg width="44" height="44" viewBox="0 0 44 44" fill="none" xmlns="http://www.w3.org/2000/svg">
<path d="M38.6546 22C38.6546 18.6142 37.6506 15.3045 35.7695 12.4893C33.8885 9.67413 31.2149 7.47997 28.0869 6.18429C24.9588 4.88861 21.5168 4.5496 18.1961 5.21013C14.8753 5.87067 11.8251 7.50107 9.43097 9.89518C7.03686 12.2893 5.40645 15.3396 4.74592 18.6603C4.08539 21.981 4.4244 25.423 5.72008 28.5511C7.01576 31.6791 9.20992 34.3527 12.0251 36.2337C14.8403 38.1148 18.15 39.1188 21.5358 39.1188L21.5358 32.746C19.4104 32.746 17.3328 32.1157 15.5656 30.9349C13.7985 29.7542 12.4211 28.0759 11.6078 26.1123C10.7945 24.1487 10.5817 21.9881 10.9963 19.9036C11.4109 17.819 12.4344 15.9043 13.9372 14.4014C15.4401 12.8986 17.3548 11.8751 19.4393 11.4605C21.5239 11.0459 23.6845 11.2587 25.6481 12.072C27.6116 12.8853 29.2899 14.2627 30.4707 16.0298C31.6515 17.797 32.2817 19.8746 32.2817 22L38.6546 22Z" fill="#8C74EB"/>
<path d="M35.4453 39.1494L35.4453 27.963" stroke="#367BE2" stroke-width="6.4"/>
<path d="M38.6546 35.9586L27.0645 35.9586" stroke="#367BE2" stroke-width="6.4"/>
</svg>
