<svg width="44" height="44" viewBox="0 0 44 44" fill="none" xmlns="http://www.w3.org/2000/svg">
<g clip-path="url(#clip0_800_67)">
<path d="M6.13358 26.9473C8.45191 22.5509 11.9659 18.8995 16.2703 16.4144L20.4728 23.6935C17.541 25.3862 15.1475 27.8733 13.5684 30.8678C11.9893 33.8624 11.2889 37.2423 11.5482 40.6178L11.8101 43.2974L3.38832 43.2974L3.12623 40.6178C2.87857 35.8772 3.91564 31.1533 6.13358 26.9473Z" fill="#4994E9"/>
<path d="M36.5697 21.8398C34.4624 24.5861 31.8348 26.8904 28.8369 28.6212L24.8181 21.6604C26.9019 20.4574 28.7282 18.8557 30.193 16.9468C31.5929 15.1224 32.6362 13.0516 33.2695 10.8429C31.0401 10.287 28.725 10.1551 26.4451 10.4553C24.0596 10.7693 21.7593 11.5502 19.6755 12.7532L15.6567 5.79242C18.6546 4.0616 21.964 2.93821 25.396 2.48638C28.1692 2.12127 30.9786 2.20044 33.7192 2.71699C34.3702 2.8397 35.0173 2.98708 35.6591 3.15905C37.8891 3.75659 40.0261 4.64316 42.0169 5.79259C42.0169 8.0914 41.7162 10.3853 41.1187 12.6154C40.9467 13.2572 40.7508 13.8913 40.5316 14.5164C39.6086 17.148 38.2725 19.6207 36.5697 21.8398Z" fill="#8C74EB"/>
</g>
<defs>
<clipPath id="clip0_800_67">
<rect width="44" height="44" fill="white"/>
</clipPath>
</defs>
</svg>
