<svg width="44" height="45" viewBox="0 0 44 45" fill="none" xmlns="http://www.w3.org/2000/svg">
<path d="M10.7379 4.44269C10.823 5.31561 10.8401 6.19635 10.7878 7.07721C10.6369 9.62128 9.9111 12.0984 8.66557 14.3223C7.40532 16.716 5.58195 18.7685 3.36125 20.3123C2.53877 20.8841 1.66989 21.3795 0.765625 21.7941L4.47002 28.2104C5.54399 27.6797 6.58052 27.0685 7.57034 26.3804C10.6955 24.2077 13.2687 21.3323 15.0764 17.9846C16.8872 14.7711 17.942 11.1874 18.1604 7.50653C18.2212 6.48322 18.2168 5.46002 18.1484 4.44269H10.7379Z" fill="#8C74EB"/>
<path d="M24.6038 4.44269C24.5753 5.36737 24.5996 6.29547 24.6776 7.22235C24.9966 11.0152 26.2002 14.6813 28.1956 17.9207C30.0731 21.0956 32.6492 23.801 35.7278 25.8306C36.9234 26.619 38.1826 27.2973 39.4898 27.8598L43.2203 21.3984C42.017 20.9537 40.8643 20.3713 39.7859 19.6603C37.6581 18.2576 35.8758 16.3906 34.5726 14.1999C33.1297 11.9117 32.2639 9.30634 32.0372 6.61115C31.9764 5.88788 31.9625 5.16364 31.9948 4.44269H24.6038Z" fill="#8C74EB"/>
<path d="M35.7376 34.3587L32.0309 40.779C31.1831 40.1655 30.2771 39.6302 29.3235 39.1816C26.8762 38.0303 24.187 37.4775 21.4838 37.5829C18.9351 37.6163 16.4269 38.2263 14.1483 39.3676C13.3085 39.7881 12.5081 40.2768 11.7544 40.8273L8.04645 34.405C8.93567 33.7996 9.86664 33.2524 10.8338 32.768C14.1308 31.1168 17.7617 30.2385 21.45 30.1999C25.2531 30.0915 29.0298 30.8823 32.4741 32.5024C33.6119 33.0377 34.7027 33.6588 35.7376 34.3587Z" fill="#8C74EB"/>
</svg>
