<svg width="44" height="45" viewBox="0 0 44 45" fill="none" xmlns="http://www.w3.org/2000/svg">
<g clip-path="url(#clip0_800_80)">
<path d="M35.9929 20.977V22.3099C35.9929 33.0703 24.2058 39.4622 21.8304 40.641C21.5657 40.7724 21.2697 40.7691 21.009 40.6299C18.7587 39.4282 7.94531 33.0927 7.94531 22.3099L7.94531 20.977" stroke="#4994E9" stroke-width="6.9"/>
<path d="M17.5147 0.276611C17.3551 0.928358 17.1403 1.56706 16.8715 2.18559C16.2227 3.67888 15.2737 5.02275 14.0835 6.13383C12.8933 7.24479 11.4873 8.09929 9.95296 8.64396C8.41861 9.18864 6.29815 9.41252 4.67383 9.30058V16.4208C7.27448 16.5999 9.88419 16.2424 12.3408 15.3703C14.7974 14.4982 17.0484 13.1302 18.954 11.3514C20.0147 10.3612 20.9557 9.25554 21.7608 8.05742C22.6104 9.3217 23.6112 10.4828 24.7436 11.5136C26.7012 13.2955 29.0094 14.6488 31.5203 15.4871C34.0312 16.3255 36.6894 16.6302 39.3249 16.3819V9.30058C37.6753 9.45598 35.3443 9.26518 33.7728 8.74052C32.2013 8.21586 30.7566 7.3687 29.5313 6.25346C28.3061 5.13823 27.3272 3.77946 26.6574 2.26408C26.3732 1.6211 26.1473 0.955936 25.9814 0.276611H17.5147Z" fill="#8C74EB"/>
</g>
<defs>
<clipPath id="clip0_800_80">
<rect width="44" height="44" fill="white" transform="translate(0 0.276611)"/>
</clipPath>
</defs>
</svg>
