<svg width="44" height="45" viewBox="0 0 44 45" fill="none" xmlns="http://www.w3.org/2000/svg">
<path d="M34.4476 37.364C31.5918 39.2721 28.2441 40.3081 24.8126 40.3481L1.67969 40.3493V33.6066H24.606C26.7693 33.6066 28.8841 32.9315 30.6828 31.7296C32.4815 30.5277 33.8835 28.8194 34.7113 26.8208C35.5392 24.8221 35.7558 22.6229 35.3337 20.5012C34.9117 18.3794 33.8699 16.4305 32.3403 14.9007C30.8106 13.3711 28.8616 12.3293 26.7399 11.9073C24.6181 11.4853 22.4189 11.7019 20.4203 12.5297C18.4216 13.3576 16.7133 14.7596 15.5115 16.5583C14.3096 18.357 13.6681 20.4718 13.6681 22.6351L13.6641 26.8144H6.92139V22.6351C6.92137 19.1315 7.93063 15.7066 9.87711 12.7935C11.8236 9.88045 14.5902 7.60994 17.827 6.26912C21.0639 4.92842 24.6256 4.57759 28.0619 5.26107C31.4981 5.94466 34.6545 7.63167 37.1319 10.1091C39.6093 12.5865 41.2964 15.7429 41.9799 19.1792C42.6635 22.6153 42.3127 26.1771 40.9719 29.414C39.6311 32.6508 37.3607 35.4174 34.4476 37.364Z" fill="#5F77E9"/>
</svg>
