<svg width="686" height="365" viewBox="0 0 686 365" fill="none" xmlns="http://www.w3.org/2000/svg">
<path d="M370.5 0H491.89L342.991 365H221.601L370.5 0Z" fill="#5F77E9"/>
<g style="mix-blend-mode:multiply" opacity="0.5">
<path d="M488.867 203.676L471.621 162.428L448.769 118.707L450.03 121.779L444.994 123.624L420.589 132.565L421.402 134.873L415.651 136.986L399.503 142.952L347.487 137.718C345.26 137.496 343.019 137.946 341.052 139.01L315.223 152.966L290.004 158.81L276.312 152.828L271.39 150.682L272.838 147.52L249.694 136.369L244.618 133.93L210.971 185.532L196.734 211.598L51.5891 128.156L41 135.357L147.647 195.523C148.191 197.095 149.194 198.467 150.527 199.464C151.859 200.461 153.46 201.036 155.123 201.115C155.752 201.144 156.382 201.103 157.002 200.993L196.734 224.108L208.449 202.025L219.024 206.812L241.03 216.793L244.081 210.153L254.282 215.03L261.173 218.33C264.972 221.134 271.228 226.1 277.126 230.863C276.624 230.773 276.11 230.787 275.615 230.905C275.119 231.022 274.653 231.24 274.246 231.545C270.097 234.488 275.303 244.55 280.835 247.11C282.303 247.827 283.946 248.109 285.57 247.923C286.907 247.758 288.157 247.175 289.141 246.257C288.669 247.663 288.328 248.996 288.019 250.174C287.737 251.348 287.692 252.565 287.885 253.756C288.079 254.947 288.508 256.088 289.147 257.112C289.786 258.136 290.622 259.023 291.607 259.721C292.592 260.42 293.706 260.915 294.885 261.179C299.945 262.252 304.956 259.692 304.956 259.692C304.956 259.692 304.061 263.479 308.389 267.145C308.698 267.405 309.032 267.676 309.39 267.958C314.93 271.892 321.487 269.648 321.853 269.47C322.235 271.673 323.453 273.644 325.253 274.972C325.514 275.167 325.798 275.354 326.067 275.541L326.246 275.639C326.817 275.962 327.416 276.234 328.035 276.451L328.296 276.541C330.785 277.484 334.934 278.451 338.53 276.362C341.881 274.419 344.623 272.761 346.283 271.745C349.892 273.576 353.885 274.523 357.932 274.509C359.243 274.534 360.54 274.239 361.711 273.649C362.882 273.06 363.891 272.195 364.652 271.128C365.843 269.434 366.623 267.486 366.93 265.438C368.162 266.402 369.534 267.175 370.997 267.73C372.893 268.332 379.132 269.592 383.68 264.243C384.117 263.731 384.516 263.188 384.876 262.618C387.699 258.066 385.933 254.336 385.868 254.197C388.585 255.092 398.453 254.539 401.659 247.232L401.724 247.086C404.766 239.925 400.487 233.407 400.389 233.268C411.177 239.299 416.489 235.333 419.051 231.57C420.955 228.774 421.093 224.425 421.036 222.377C421.032 222.334 421.032 222.29 421.036 222.247C421.004 221.585 420.849 220.935 420.581 220.329L418.14 214.867C418.14 214.867 420.02 213.819 422.729 211.965L424.128 210.982L424.445 210.754L425.633 209.885L426.096 209.527C426.463 209.251 426.837 208.966 427.211 208.666L427.764 208.219C428.122 207.926 428.48 207.641 428.838 207.341C429.05 207.17 429.253 206.983 429.464 206.804L430.481 205.918L431.165 205.284L432.116 204.398L432.841 203.675C433.133 203.382 433.426 203.098 433.711 202.797L434.459 201.984C434.647 201.773 434.85 201.57 435.037 201.351C435.224 201.131 435.346 201.009 435.493 200.83L443.221 198.002L445.523 204.65L470.01 196.303L479.382 193.109L488.867 216.192L645 142.952V134.873L488.867 203.676ZM290.451 241.754L290.858 242.087C290.768 242.274 290.679 242.461 290.597 242.648C290.565 242.347 290.516 242.049 290.451 241.754Z" fill="url(#paint0_linear_722_16)"/>
</g>
<path d="M326.091 263.341C326.091 263.341 332.998 267.405 338.554 264.154C344.111 260.903 348.016 258.464 348.016 258.464L335.813 251.304L326.091 263.341Z" fill="#B9B8FC"/>
<g style="mix-blend-mode:multiply" opacity="0.5">
<path d="M326.091 263.341C326.091 263.341 332.998 267.405 338.554 264.154C344.111 260.903 348.016 258.464 348.016 258.464L335.813 251.304L326.091 263.341Z" fill="#8579CC"/>
</g>
<path d="M419.06 219.362C416.497 223.125 411.185 227.091 400.398 221.06C400.642 221.451 403.929 226.669 402.399 232.821C402.228 233.522 401.999 234.207 401.716 234.87L401.651 235.016C398.445 242.331 388.578 242.875 385.86 241.981C385.925 242.12 387.691 245.85 384.868 250.402C384.509 250.971 384.109 251.515 383.672 252.027C379.149 257.375 372.885 256.091 370.989 255.514C369.526 254.959 368.154 254.186 366.922 253.222C366.616 255.27 365.836 257.218 364.644 258.912C363.883 259.979 362.874 260.844 361.703 261.433C360.532 262.023 359.235 262.318 357.924 262.293C352.677 262.333 348.553 260.854 343.802 258.286C342.728 257.709 341.63 257.075 340.474 256.392C338.986 255.506 337.407 254.539 335.707 253.498C326.816 248.061 292.217 231.001 292.217 231.001C292.217 231.001 285.823 225.718 278.517 219.817C272.221 214.721 265.249 209.153 261.14 206.13L254.25 202.83L234.172 193.223L224.736 188.704L197.629 175.764L234.888 122.56L253.258 130.582L276.304 140.636L289.996 146.618L321.21 139.392L328.687 137.637L353.71 153.486L415.651 192.735L418.092 202.651L420.532 208.113C420.801 208.719 420.955 209.369 420.988 210.031C420.984 210.074 420.984 210.118 420.988 210.161C421.102 212.217 420.964 216.566 419.06 219.362Z" fill="#C2ACFF"/>
<g style="mix-blend-mode:multiply" opacity="0.5">
<path d="M340.507 256.433C339.018 255.547 337.44 254.58 335.74 253.539C326.848 248.102 292.249 231.041 292.249 231.041C292.249 231.041 285.855 225.758 278.55 219.858C272.253 214.761 265.281 209.194 261.173 206.17L254.282 202.87L234.172 193.223L238.435 185.794L268.861 200.14C268.861 200.14 306.616 231.911 317.525 238.771C328.434 245.631 340.108 254.547 340.108 254.547L340.507 256.433Z" fill="#6C5087"/>
</g>
<g style="mix-blend-mode:multiply" opacity="0.5">
<path d="M276.304 140.636L254.282 202.871L224.735 188.728L253.265 130.582L276.304 140.636Z" fill="#6C5087"/>
</g>
<g style="mix-blend-mode:multiply" opacity="0.5">
<path d="M420.581 208.121L418.14 202.659L415.7 192.743L353.751 153.494L328.686 137.637L321.21 139.392L316.5 146.155L295.479 174.96C295.479 174.96 299.066 183.99 310.594 183.022C322.121 182.055 331.859 166.076 335.926 164.182C337.553 163.426 346.567 166.62 357.753 171.351C374.284 180.495 406.523 198.433 413.389 203.049C416.315 204.935 418.903 207.297 421.045 210.039C421.009 209.377 420.852 208.726 420.581 208.121V208.121Z" fill="#6C5087"/>
</g>
<g style="mix-blend-mode:multiply" opacity="0.5">
<path d="M402.415 232.845C395.907 228.286 384.981 220.849 379.4 217.029C370.256 210.77 371.395 202.87 371.395 202.87L400.397 221.06C400.658 221.475 403.944 226.693 402.415 232.845Z" fill="#6C5087"/>
</g>
<g style="mix-blend-mode:multiply" opacity="0.5">
<path d="M384.884 250.434C380.255 247.321 372.681 242.209 368.069 239.055C361.072 234.309 360.747 225.189 360.747 225.189L385.877 241.99C385.942 242.152 387.707 245.883 384.884 250.434Z" fill="#6C5087"/>
</g>
<g style="mix-blend-mode:multiply" opacity="0.5">
<path d="M366.954 253.272C366.648 255.319 365.868 257.267 364.676 258.961C360.018 256.256 355.507 253.304 351.164 250.118C345.079 245.396 345.396 240.479 345.396 240.479L366.954 253.272Z" fill="#6C5087"/>
</g>
<path d="M508.758 161.834L456.652 180.877L435.501 188.615C435.354 188.794 435.2 188.964 435.045 189.135C431.382 193.152 427.244 196.708 422.721 199.725C420.012 201.579 418.132 202.627 418.132 202.627L416.668 200.75C415.191 198.852 413.373 197.245 411.307 196.011L402.464 190.785L385.73 180.755L382.614 178.894L380.621 177.699L345.144 156.404C343.843 155.628 342.298 155.37 340.816 155.681C340.568 155.73 340.323 155.795 340.084 155.876L329.874 159.403L329.296 159.598C329.097 159.67 328.902 159.751 328.711 159.842C327.673 160.325 326.795 161.095 326.181 162.061C318.363 174.399 310.228 178.252 304.118 178.983C303.387 179.076 302.651 179.122 301.914 179.121C300.512 179.131 299.115 178.978 297.748 178.666C297.155 178.528 296.598 178.263 296.118 177.889C295.637 177.515 295.243 177.041 294.964 176.5C294.685 175.959 294.526 175.363 294.5 174.755C294.474 174.147 294.58 173.54 294.812 172.977L305.908 148.732C306.872 146.302 308.66 144.288 310.96 143.042L341.06 126.787C343.027 125.723 345.269 125.272 347.495 125.494L399.511 130.729L415.651 124.795L436.721 117.017L485.223 99.1357L505.008 151.885L508.758 161.834Z" fill="#B9B8FC"/>
<path d="M272.83 135.328L241.03 204.634L218.992 194.636L196.636 184.493L234.09 116.683L249.661 124.176L272.83 135.328Z" fill="#F9F8FB"/>
<g style="mix-blend-mode:multiply" opacity="0.5">
<path d="M343.833 258.326C341.393 257.001 338.765 255.384 335.739 253.539C326.847 248.102 292.248 231.041 292.248 231.041C292.248 231.041 285.854 225.758 278.549 219.857C281.803 219.955 288.425 221.133 295.21 227.985L304.199 223.702C304.199 223.702 314.034 224.515 317.793 237.47L327.075 233.341C329.192 234.535 330.99 236.221 332.318 238.255C333.646 240.289 334.465 242.612 334.706 245.029C334.706 245.029 342.166 247.687 343.41 252.344C343.956 254.289 344.1 256.324 343.833 258.326Z" fill="#875C50"/>
</g>
<path d="M285.57 235.756C283.946 235.942 282.303 235.66 280.835 234.943C275.303 232.375 270.097 222.321 274.246 219.378C274.246 219.378 276.467 217.151 282.235 220.606C285.619 222.638 287.823 224.596 289.117 226.539C289.96 227.741 290.479 229.141 290.622 230.603C290.825 232.919 288.743 235.333 285.57 235.756Z" fill="#B9B8FC"/>
<g style="mix-blend-mode:multiply" opacity="0.5">
<path d="M285.57 235.756C286.437 232.574 287.625 229.488 289.117 226.547C289.961 227.749 290.479 229.149 290.622 230.611C290.826 232.919 288.743 235.333 285.57 235.756Z" fill="#8579CC"/>
</g>
<path d="M294.884 249.012C293.706 248.748 292.592 248.253 291.607 247.554C290.621 246.856 289.785 245.969 289.146 244.945C288.507 243.921 288.079 242.78 287.885 241.589C287.691 240.398 287.737 239.181 288.018 238.007C288.93 234.004 290.491 230.177 292.639 226.677C297.52 219.029 311.927 222.264 310.488 235.089L304.956 247.525C304.956 247.525 299.944 250.118 294.884 249.012Z" fill="#B9B8FC"/>
<path d="M328.524 243.404L321.853 257.27C321.487 257.448 314.93 259.708 309.39 255.758C309.032 255.498 308.698 255.227 308.389 254.945C304.061 251.279 304.956 247.492 304.956 247.492L310.488 235.056C310.488 235.056 314.458 227.457 321.348 229.212L321.779 229.334C328.93 231.561 330.305 238.161 328.524 243.404Z" fill="#B9B8FC"/>
<path d="M340.873 250.93C340.148 254.555 337.106 263.821 337.106 263.821C335.845 265.024 333.754 266.332 328.06 264.268C327.054 263.911 326.107 263.404 325.253 262.764C323.452 261.436 322.234 259.465 321.853 257.262L327.319 245.883C329.76 243.786 332.078 243.314 334.096 243.721C338.367 244.599 341.19 249.305 340.873 250.93Z" fill="#B9B8FC"/>
<g style="mix-blend-mode:multiply" opacity="0.5">
<path d="M321.348 229.245C319.388 230.7 315.743 234.121 313.262 240.697C311.415 245.614 309.65 250.978 308.381 254.977C304.053 251.312 304.948 247.524 304.948 247.524L310.48 235.089C310.48 235.089 314.458 227.489 321.348 229.245Z" fill="#8579CC"/>
</g>
<g style="mix-blend-mode:multiply" opacity="0.5">
<path d="M334.096 243.745C332.786 244.875 330.842 247.24 329.02 252.06C327.498 256.124 326.197 259.912 325.253 262.773C323.452 261.444 322.234 259.473 321.853 257.27L327.319 245.891C329.76 243.81 332.078 243.339 334.096 243.745Z" fill="#8579CC"/>
</g>
<g style="mix-blend-mode:multiply" opacity="0.5">
<path d="M505.016 151.86C466.683 164.783 422.379 179.966 418.409 182.38C415.437 184.166 412.195 185.459 408.809 186.208C404.66 183.567 399.356 180.226 393.564 176.609C403.229 168.977 402.383 156.639 402.383 156.639C399.381 166.1 394.5 171.367 389.83 174.285C369.354 161.548 344.77 146.65 342.963 146.561C339.953 146.479 327.01 150.682 327.01 150.682C327.01 150.682 326.197 163.686 315.621 171.814C312.05 174.586 308.203 176.985 304.143 178.974C310.252 178.243 318.387 174.39 326.205 162.052C326.439 161.69 326.712 161.355 327.019 161.053C327.129 160.938 327.246 160.83 327.368 160.727L327.442 160.662L327.816 160.37H327.857L328.231 160.126L328.304 160.085C328.449 160.001 328.598 159.926 328.751 159.858C328.84 159.809 328.932 159.768 329.028 159.736L329.337 159.614L329.915 159.419L340.124 155.891L340.474 155.786H340.564L340.808 155.729C342.305 155.408 343.868 155.663 345.184 156.444L380.662 177.698L385.771 180.754L402.464 190.784L411.307 196.075C413.373 197.309 415.191 198.916 416.668 200.814L418.132 202.691C418.132 202.691 420.011 201.643 422.72 199.79C427.432 196.635 431.721 192.893 435.485 188.655L508.758 161.833L505.016 151.86Z" fill="#8579CC"/>
</g>
<g style="mix-blend-mode:multiply" opacity="0.5">
<path d="M456.652 180.877L435.501 188.614C435.354 188.793 435.2 188.964 435.045 189.135L415.651 124.795L436.721 117.017L456.652 180.877Z" fill="#8579CC"/>
</g>
<path d="M491.658 176.699L470.002 184.088L445.515 192.435L420.597 120.374L444.994 111.433L460.964 105.581L491.658 176.699Z" fill="#F8F9FB"/>
<g style="mix-blend-mode:multiply">
<path d="M491.657 176.699L470.002 184.087L444.994 111.433L460.963 105.581L491.657 176.699Z" fill="#EAEEFE"/>
</g>
<path d="M606.339 37.7979L642.459 136.396L488.884 204L479.374 180.893L476.397 173.659L472.036 163.052L465.04 146.049L463.266 141.733L450.933 111.774L450.03 109.588L448.77 106.515L495.628 89.2925L606.339 37.7979Z" fill="url(#paint1_linear_722_16)"/>
<g style="mix-blend-mode:multiply">
<path d="M249.661 124.176L218.992 194.636L196.636 184.493L234.09 116.683L249.661 124.176Z" fill="#F2EFFF"/>
</g>
<path d="M246.139 118.805L244.585 121.731L242.405 125.843L228.291 152.446L226.11 156.566L212.224 182.738L208.449 189.85L196.734 211.933L157.019 188.761L147.647 183.291L49.895 130.213L90.2453 30.3135L201.176 97.1116L246.139 118.805Z" fill="url(#paint2_linear_722_16)"/>
<path d="M163.876 180.958C163.796 182.605 163.228 184.191 162.245 185.515C161.263 186.84 159.909 187.844 158.356 188.4C156.802 188.957 155.118 189.04 153.517 188.641C151.916 188.241 150.469 187.376 149.36 186.156C148.251 184.935 147.528 183.413 147.284 181.782C147.041 180.151 147.286 178.485 147.99 176.994C148.694 175.502 149.824 174.253 151.239 173.403C152.653 172.554 154.288 172.142 155.936 172.22C157.032 172.272 158.107 172.54 159.099 173.007C160.091 173.475 160.982 174.133 161.719 174.945C162.457 175.756 163.027 176.705 163.397 177.737C163.767 178.768 163.93 179.863 163.876 180.958V180.958Z" fill="#C6B8FC"/>
<defs>
<linearGradient id="paint0_linear_722_16" x1="65.9902" y1="156.958" x2="634.834" y2="147.64" gradientUnits="userSpaceOnUse">
<stop stop-color="#ECE8FB" stop-opacity="0"/>
<stop offset="0.195714" stop-color="#ECE8FB"/>
<stop offset="0.715001" stop-color="#ECE8FB"/>
<stop offset="1" stop-color="#ECE8FB" stop-opacity="0"/>
</linearGradient>
<linearGradient id="paint1_linear_722_16" x1="448.843" y1="106.458" x2="609.268" y2="62.5287" gradientUnits="userSpaceOnUse">
<stop offset="0.271675" stop-color="#D7D7FF"/>
<stop offset="1" stop-color="#D7D7FF" stop-opacity="0"/>
</linearGradient>
<linearGradient id="paint2_linear_722_16" x1="231.797" y1="139.975" x2="76.1652" y2="66.2904" gradientUnits="userSpaceOnUse">
<stop offset="0.216115" stop-color="#D5CAFF"/>
<stop offset="1" stop-color="#D5CAFF" stop-opacity="0"/>
</linearGradient>
</defs>
</svg>
