<svg width="810" height="213" viewBox="0 0 810 213" fill="none" xmlns="http://www.w3.org/2000/svg">
<path d="M154.659 71.133C146.533 66.5624 136.611 66.5624 128.485 71.1333L36.7739 122.72H28.5635V127.434C28.5581 131.224 30.4496 135.016 34.2347 137.145L130.666 191.387C137.438 195.196 145.706 195.196 152.478 191.387L248.909 137.145C252.694 135.016 254.584 131.224 254.578 127.434H254.581V122.72H246.37L154.659 71.133Z" fill="#C6B8FC"/>
<path d="M154.659 70.618C146.533 66.0474 136.611 66.0474 128.485 70.6183L36.7739 122.206H28.5635V126.12C28.5581 129.91 30.4496 133.702 34.2347 135.831L130.666 190.073C137.438 193.882 145.706 193.882 152.478 190.073L248.909 135.831C252.694 133.702 254.584 129.91 254.578 126.12H254.581V122.206H246.37L154.659 70.618Z" fill="#EEECF6"/>
<path fill-rule="evenodd" clip-rule="evenodd" d="M154.658 57.367C146.532 52.7962 136.61 52.7962 128.484 57.367L34.2338 110.383C26.6744 114.635 26.6744 125.519 34.2338 129.771L130.665 184.013C137.437 187.822 145.705 187.822 152.477 184.013L248.908 129.771C256.467 125.519 256.467 114.635 248.908 110.383L154.658 57.367Z" fill="#FAF9FC" stroke="white"/>
<path d="M315.502 136.943L316.78 112.466L330.214 112.19L334.289 129.271L330.59 130.48L329.523 157.382L327.904 157.415L325.488 142.244L324.678 142.26L323.023 164.154L320.919 164.197L319.386 136.864L315.502 136.943Z" fill="url(#paint0_linear_719_7)"/>
<circle cx="323.348" cy="104.979" r="4.28696" transform="rotate(-1.17609 323.348 104.979)" fill="url(#paint1_linear_719_7)"/>
<path d="M588.661 70.174H576.707L574.769 97.3504H576.707L578.322 92.174L580.907 102.203L574.769 125.174H578.322L584.003 108.997L588.661 119.997H590.922L586.332 102.365L588.661 95.7328V86.9975L593.83 95.7328H595.769L588.661 70.174Z" fill="url(#paint2_linear_719_7)"/>
<circle cx="583.269" cy="62.674" r="4.5" fill="url(#paint3_linear_719_7)"/>
<g clip-path="url(#clip0_719_7)">
<path d="M182.853 90.4784L174.863 85.8121H174.935L182.973 90.4784H182.901" fill="#B9A8FD"/>
<path d="M182.958 90.4464L174.92 85.7801C175.26 85.6355 175.61 85.5154 175.967 85.4206L184.005 90.0869C183.65 90.1889 183.301 90.3089 182.958 90.4464Z" fill="#B9A8FD"/>
<path d="M184.005 90.0869L175.967 85.4206C176.229 85.3447 176.496 85.286 176.766 85.2448L184.804 89.9031C184.535 89.9445 184.268 90.0005 184.005 90.0709" fill="#B9A8FD"/>
<path d="M184.803 89.9031L176.765 85.2288C176.984 85.196 177.206 85.1747 177.428 85.1649L185.466 89.8392C185.244 89.8489 185.023 89.8703 184.803 89.9031Z" fill="#B9A8FD"/>
<path d="M185.466 89.8551L177.428 85.1809C177.625 85.1687 177.822 85.1687 178.019 85.1809L186.049 89.8551H185.458" fill="#B9A8FD"/>
<path d="M186.05 89.8552L178.06 85.1889C178.242 85.1974 178.424 85.2188 178.603 85.2528L186.601 89.9031C186.425 89.9031 186.242 89.8552 186.058 89.8392" fill="#B9A8FD"/>
<path d="M186.601 89.9031L178.562 85.2368C178.733 85.2609 178.901 85.2983 179.066 85.3487L187.104 90.0229C186.938 89.9745 186.77 89.9345 186.601 89.9031Z" fill="#B9A8FD"/>
<path d="M187.105 90.0389L179.066 85.3647C179.226 85.4122 179.384 85.4682 179.538 85.5325L187.576 90.2067C187.422 90.1425 187.265 90.0865 187.105 90.0389Z" fill="#B9A8FD"/>
<path d="M187.576 90.2067L179.538 85.5325C179.695 85.5957 179.847 85.6705 179.994 85.7562L188.024 90.4225C187.879 90.3426 187.729 90.2706 187.576 90.2067Z" fill="#B9A8FD"/>
<path d="M188.023 90.4224L179.993 85.7562H180.041L188.079 90.4304H188.023" fill="#B9A8FD"/>
<path d="M172.369 83.1993L164.379 78.533C164.791 78.3681 165.213 78.2267 165.641 78.1096L173.679 82.7838C173.249 82.8993 172.825 83.038 172.409 83.1993" fill="#B9A8FD"/>
<path d="M173.64 82.7838L165.602 78.1096C165.964 78.0111 166.332 77.9337 166.704 77.8779L174.742 82.5441C174.37 82.6019 174.002 82.6819 173.64 82.7838Z" fill="#B9A8FD"/>
<path d="M174.742 82.5441L166.704 77.9178C167.024 77.8698 167.335 77.8379 167.639 77.8219L175.661 82.4562C175.348 82.4657 175.036 82.495 174.726 82.5441" fill="#B9A8FD"/>
<path d="M175.661 82.4562L167.671 77.782C167.951 77.782 168.23 77.782 168.47 77.782L176.508 82.4562C176.242 82.4377 175.975 82.4377 175.709 82.4562" fill="#B9A8FD"/>
<path d="M176.508 82.4642L168.47 77.79C168.725 77.79 168.973 77.8379 169.221 77.8779L177.259 82.5521C177.011 82.5066 176.76 82.4773 176.508 82.4642Z" fill="#B9A8FD"/>
<path d="M177.259 82.5522L169.221 77.9178C169.452 77.9578 169.684 78.0137 169.916 78.0776L177.954 82.712C177.726 82.6436 177.494 82.5902 177.259 82.5522Z" fill="#B9A8FD"/>
<path d="M177.954 82.7119L169.916 78.0377C170.136 78.1017 170.352 78.1791 170.563 78.2694L178.601 82.9357C178.39 82.8492 178.174 82.7745 177.954 82.7119Z" fill="#B9A8FD"/>
<path d="M178.602 82.9357L170.563 78.2694C170.779 78.3544 170.987 78.4559 171.187 78.573L179.177 83.2393C178.978 83.1254 178.773 83.024 178.562 82.9357" fill="#B9A8FD"/>
<path d="M179.217 83.2393L171.227 78.573H171.29L179.329 83.2473L179.257 83.2073" fill="#B9A8FD"/>
<path d="M154.959 75.8564L146.896 71.1901C147.697 70.7232 148.527 70.3095 149.381 69.9516L157.42 74.6259C156.564 74.9793 155.734 75.3904 154.935 75.8564" fill="#B9A8FD"/>
<path d="M157.443 74.6259L149.405 69.9276C150.065 69.6498 150.743 69.4175 151.435 69.2325L159.473 73.9227C158.782 74.1142 158.104 74.349 157.443 74.6259Z" fill="#B9A8FD"/>
<path d="M159.474 73.9227L151.436 69.2564C151.948 69.1157 152.468 69.0037 152.994 68.9208L161.032 73.5951C160.506 73.6714 159.986 73.7808 159.474 73.9227Z" fill="#B9A8FD"/>
<path d="M161.031 73.5951L152.993 68.9209C153.425 68.8553 153.859 68.8126 154.296 68.793L162.334 73.4593C161.897 73.4817 161.463 73.527 161.031 73.5951Z" fill="#B9A8FD"/>
<path d="M162.333 73.4593L154.295 68.793C154.681 68.773 155.068 68.773 155.454 68.793L163.492 73.4673C163.106 73.4471 162.719 73.4471 162.333 73.4673" fill="#B9A8FD"/>
<path d="M163.492 73.4753L155.454 68.801C155.808 68.823 156.16 68.8656 156.509 68.9289L164.547 73.5951C164.201 73.5419 163.849 73.5019 163.492 73.4753Z" fill="#B9A8FD"/>
<path d="M164.546 73.5951L156.484 68.9288C156.816 68.9827 157.145 69.0574 157.467 69.1526L165.505 73.8268C165.183 73.7289 164.855 73.6515 164.523 73.5951" fill="#B9A8FD"/>
<path d="M165.529 73.8268L157.491 69.1286C157.807 69.2174 158.117 69.3269 158.418 69.4562L166.456 74.1225C166.153 73.9993 165.844 73.8926 165.529 73.8029" fill="#B9A8FD"/>
<path d="M166.456 74.1464L158.418 69.4802C158.719 69.6078 159.012 69.7519 159.297 69.9116L167.335 74.5779C167.05 74.4182 166.757 74.2741 166.456 74.1464Z" fill="#B9A8FD"/>
<path d="M167.335 74.5779L159.297 69.9276L159.393 69.9835L167.431 74.6498L167.335 74.5939" fill="#B9A8FD"/>
<path d="M138.403 99.0758L130.365 94.4016C130.437 94.1219 130.509 93.8502 130.589 93.6025L138.627 98.2768C138.547 98.5485 138.475 98.8281 138.403 99.0758Z" fill="#B9A8FD"/>
<path d="M138.627 98.2449L130.589 93.5706C130.757 92.9714 130.94 92.3801 131.132 91.7808L139.17 96.4471C138.971 97.0464 138.795 97.6456 138.627 98.2449Z" fill="#B9A8FD"/>
<path d="M139.17 96.4471L131.132 91.7808C131.324 91.2295 131.515 90.6782 131.731 90.1268L139.769 94.7931C139.556 95.3258 139.356 95.8771 139.17 96.4471Z" fill="#B9A8FD"/>
<path d="M139.77 94.7931L131.716 90.1268C131.916 89.5995 132.131 89.0801 132.355 88.5288L140.393 93.2031C140.169 93.7224 139.954 94.2498 139.754 94.8011" fill="#B9A8FD"/>
<path d="M140.409 93.227L132.371 88.5527C132.595 88.0494 132.827 87.538 133.066 87.0346L141.104 91.7089C140.865 92.2122 140.633 92.7156 140.409 93.227Z" fill="#B9A8FD"/>
<path d="M141.105 91.7089L133.066 87.0346C133.306 86.5392 133.562 86.0359 133.865 85.5485L141.904 90.2147C141.64 90.7101 141.384 91.2055 141.144 91.7089" fill="#B9A8FD"/>
<path d="M141.863 90.2147L133.825 85.5484C134.089 85.0451 134.361 84.5577 134.624 84.0703L142.662 88.7365C142.375 89.2239 142.103 89.7193 141.863 90.2147Z" fill="#B9A8FD"/>
<path d="M142.687 88.7366L134.648 84.0703C134.944 83.5669 135.24 83.0715 135.559 82.5841L143.589 87.2504C143.278 87.7378 142.974 88.2332 142.687 88.7366Z" fill="#B9A8FD"/>
<path d="M143.589 87.2503L135.559 82.5841C135.878 82.0727 136.222 81.5613 136.565 81.0659L144.604 85.7402C144.26 86.2356 143.916 86.7389 143.589 87.2503Z" fill="#B9A8FD"/>
<path d="M144.604 85.7402L136.565 81.0659C136.949 80.5333 137.34 80.0006 137.74 79.4679L145.778 84.1342C145.371 84.6535 144.979 85.1809 144.604 85.7322" fill="#B9A8FD"/>
<path d="M145.778 84.1502L137.74 79.5159C138.196 78.9246 138.667 78.3573 139.147 77.798L147.185 82.4722C146.705 83.0236 146.234 83.5988 145.778 84.1821" fill="#B9A8FD"/>
<path d="M147.185 82.4403L139.146 77.766C139.759 77.0522 140.398 76.3731 141.064 75.7285L149.094 80.3948C148.439 81.05 147.8 81.7292 147.185 82.4403Z" fill="#B9A8FD"/>
<path d="M149.095 80.3948L141.064 75.7285C142.816 73.9728 144.784 72.4477 146.921 71.1901L154.959 75.8563C152.823 77.1185 150.853 78.6432 149.095 80.3948Z" fill="#B9A8FD"/>
<path d="M116.27 128.839L108.231 124.165L109.454 123.454L117.492 128.128L116.27 128.839Z" fill="#B9A8FD"/>
<path d="M109.958 150.061L101.92 145.395C100.322 144.46 99.3068 142.471 99.2988 139.634C99.2998 139.049 99.3398 138.464 99.4187 137.884L107.457 142.551C107.378 143.133 107.338 143.72 107.337 144.308C107.337 147.137 108.344 149.103 109.958 150.061Z" fill="#B9A8FD"/>
<path d="M107.456 142.551L99.418 137.884C99.4659 137.469 99.5378 137.085 99.6257 136.638L107.664 141.312C107.576 141.728 107.504 142.111 107.456 142.551Z" fill="#B9A8FD"/>
<path d="M107.664 141.312L99.626 136.638C99.6979 136.294 99.7858 135.951 99.8817 135.615L107.92 140.281C107.824 140.625 107.736 140.968 107.664 141.312Z" fill="#B9A8FD"/>
<path d="M107.92 140.281L99.8818 135.615C99.9617 135.303 100.058 135 100.161 134.696L108.2 139.37C108.096 139.674 108 139.978 107.92 140.281Z" fill="#B9A8FD"/>
<path d="M108.2 139.37L100.162 134.696C100.258 134.417 100.354 134.129 100.466 133.849L108.544 138.524C108.432 138.803 108.336 139.083 108.24 139.37" fill="#B9A8FD"/>
<path d="M108.543 138.523L100.465 133.849C100.569 133.586 100.673 133.314 100.792 133.05L108.831 137.716C108.711 137.988 108.607 138.252 108.503 138.515" fill="#B9A8FD"/>
<path d="M108.831 137.716L100.793 133.05C100.905 132.787 101.025 132.523 101.153 132.251L109.143 136.925C109.023 137.181 108.903 137.445 108.791 137.724" fill="#B9A8FD"/>
<path d="M109.183 136.941L101.192 132.267C101.312 132.011 101.44 131.756 101.576 131.468L109.614 136.134C109.478 136.39 109.35 136.646 109.223 136.933" fill="#B9A8FD"/>
<path d="M109.574 136.174L101.536 131.508C101.672 131.252 101.808 130.997 101.96 130.749L109.95 135.423C109.806 135.671 109.67 135.927 109.534 136.174" fill="#B9A8FD"/>
<path d="M109.989 135.447L101.999 130.773C102.143 130.517 102.303 130.27 102.462 129.974L110.453 134.648C110.293 134.896 110.141 135.152 109.989 135.407" fill="#B9A8FD"/>
<path d="M110.453 134.648L102.463 129.974C102.631 129.718 102.798 129.455 102.974 129.175L110.94 133.889C110.765 134.145 110.589 134.401 110.421 134.688" fill="#B9A8FD"/>
<path d="M110.94 133.889L102.95 129.215L103.549 128.416L111.572 133.05C111.364 133.314 111.172 133.586 110.972 133.849" fill="#B9A8FD"/>
<path d="M111.571 133.05L103.533 128.376C103.773 128.072 104.013 127.777 104.26 127.489L112.298 132.163C112.051 132.451 111.811 132.747 111.571 133.05Z" fill="#B9A8FD"/>
<path d="M112.299 132.195L104.261 127.521C104.58 127.161 104.908 126.81 105.244 126.482L113.282 131.149C112.946 131.484 112.618 131.828 112.299 132.195Z" fill="#B9A8FD"/>
<path d="M113.282 131.149L105.244 126.482C106.139 125.582 107.146 124.8 108.24 124.157L116.279 128.831C115.186 129.474 114.179 130.253 113.282 131.149Z" fill="#B9A8FD"/>
<path d="M117.5 128.128L109.462 123.462C109.406 122.902 109.38 122.339 109.382 121.776C109.383 120.814 109.447 119.853 109.574 118.9L117.564 123.574C117.444 124.525 117.383 125.483 117.38 126.442C117.378 127.008 117.405 127.573 117.46 128.136" fill="#B9A8FD"/>
<path d="M117.603 123.566L109.613 118.892C109.701 118.22 109.813 117.541 109.957 116.854L117.995 121.528C117.851 122.208 117.731 122.887 117.643 123.566" fill="#B9A8FD"/>
<path d="M117.956 121.528L109.918 116.854C110.038 116.295 110.182 115.735 110.333 115.168L118.372 119.842C118.212 120.402 118.076 120.969 117.956 121.528Z" fill="#B9A8FD"/>
<path d="M118.371 119.842L110.333 115.168C110.469 114.673 110.621 114.169 110.788 113.674L118.827 118.348C118.659 118.844 118.507 119.339 118.371 119.842Z" fill="#B9A8FD"/>
<path d="M118.826 118.348L110.788 113.674C110.948 113.211 111.108 112.747 111.283 112.292L119.322 116.958C119.146 117.421 118.978 117.885 118.826 118.348Z" fill="#B9A8FD"/>
<path d="M119.321 116.958L111.283 112.276C111.459 111.828 111.635 111.389 111.827 110.957L119.865 115.624C119.673 116.063 119.497 116.503 119.321 116.942" fill="#B9A8FD"/>
<path d="M119.865 115.64L111.827 110.973C112.011 110.542 112.203 110.118 112.41 109.695L120.449 114.369C120.241 114.793 120.049 115.216 119.865 115.64Z" fill="#B9A8FD"/>
<path d="M120.448 114.369L112.41 109.695C112.61 109.279 112.826 108.856 113.041 108.448L121.08 113.115C120.864 113.53 120.648 113.914 120.448 114.369Z" fill="#B9A8FD"/>
<path d="M121.079 113.115L113.041 108.448C113.265 108.033 113.496 107.649 113.728 107.21L121.766 111.884C121.535 112.292 121.303 112.683 121.079 113.115Z" fill="#B9A8FD"/>
<path d="M121.767 111.884L113.729 107.21C113.976 106.786 114.232 106.411 114.528 105.963L122.526 110.678C122.27 111.085 122.014 111.477 121.727 111.924" fill="#B9A8FD"/>
<path d="M122.526 110.678L114.488 105.963C114.768 105.54 115.048 105.116 115.343 104.701L123.381 109.367C123.086 109.783 122.806 110.166 122.526 110.638" fill="#B9A8FD"/>
<path d="M123.381 109.367L115.343 104.701C115.654 104.246 115.982 103.806 116.318 103.375L124.356 108.041C124.02 108.472 123.693 108.92 123.381 109.367Z" fill="#B9A8FD"/>
<path d="M124.356 108.041L116.317 103.375C116.701 102.871 117.116 102.392 117.508 101.92L125.546 106.595C125.139 107.058 124.747 107.546 124.356 108.041Z" fill="#B9A8FD"/>
<path d="M125.546 106.595L117.508 101.888C118.027 101.297 118.563 100.722 119.106 100.179L127.144 104.853C126.593 105.396 126.057 105.963 125.546 106.563" fill="#B9A8FD"/>
<path d="M127.151 104.885L119.113 100.21C120.582 98.7434 122.23 97.4681 124.019 96.4151C124.691 96.0195 125.391 95.6724 126.113 95.3764L134.151 100.043C133.432 100.345 132.733 100.692 132.057 101.081C130.269 102.138 128.62 103.416 127.151 104.885Z" fill="#B9A8FD"/>
<path d="M134.151 100.043L126.121 95.3764C126.677 95.143 127.248 94.9481 127.831 94.7932L135.853 99.4914C135.274 99.65 134.706 99.8448 134.151 100.075" fill="#B9A8FD"/>
<path d="M135.853 99.4913L127.823 94.8251C128.244 94.707 128.67 94.6136 129.102 94.5454L137.14 99.2197C136.706 99.2858 136.277 99.3765 135.853 99.4913Z" fill="#B9A8FD"/>
<path d="M137.14 99.1877L129.102 94.5135C129.462 94.4598 129.824 94.4252 130.188 94.4096L138.226 99.0759C137.862 99.0942 137.5 99.1315 137.14 99.1877Z" fill="#B9A8FD"/>
<path d="M138.227 99.0759L130.188 94.4096H130.364L138.402 99.0839H138.227" fill="#B9A8FD"/>
<path d="M154.959 75.8564C163.82 70.7426 171.171 74.0666 172.369 83.1994C176.596 81.5374 180.359 82.6081 182.037 86.5552C182.543 87.8045 182.83 89.1317 182.884 90.4784C187.271 88.6167 190.667 90.9658 190.683 96.1914C190.683 101.88 186.688 108.816 181.75 111.668L116.334 149.438C111.38 152.299 107.353 150.005 107.337 144.308C107.321 138.611 111.332 131.692 116.278 128.831L117.5 128.128C117.445 127.565 117.418 127 117.421 126.434C117.421 117.118 123.949 105.764 132.059 101.081C133.974 99.8973 136.155 99.2081 138.403 99.0759C140.744 89.7833 147.256 80.3149 154.959 75.8564Z" fill="#8C74EB"/>
<path d="M156.229 89.0162L166.792 99.3155C166.852 99.3678 166.898 99.4338 166.926 99.5078C166.955 99.5818 166.965 99.6616 166.955 99.7404C166.946 99.8191 166.917 99.8943 166.872 99.9595C166.827 100.025 166.767 100.078 166.696 100.115L161.814 102.935C161.738 102.978 161.675 103.041 161.631 103.117C161.588 103.193 161.566 103.279 161.567 103.367V117.333L150.005 124.005L149.965 110.606C149.966 110.519 149.943 110.435 149.901 110.36C149.858 110.285 149.796 110.223 149.721 110.18C149.646 110.137 149.561 110.114 149.475 110.115C149.389 110.115 149.304 110.138 149.23 110.182L145.618 112.26C145.528 112.313 145.423 112.336 145.319 112.325C145.215 112.314 145.118 112.27 145.04 112.199C144.963 112.128 144.911 112.035 144.892 111.932C144.872 111.829 144.886 111.723 144.931 111.628L155.398 89.184C155.427 89.1038 155.476 89.0323 155.541 88.9766C155.605 88.9208 155.683 88.8827 155.767 88.8658C155.85 88.8489 155.937 88.8539 156.018 88.8803C156.099 88.9066 156.172 88.9534 156.229 89.0162Z" fill="white"/>
</g>
<g clip-path="url(#clip1_719_7)">
<path d="M182.853 90.8732L174.863 86.2069H174.935L182.973 90.8732H182.901" fill="#6EAFF9"/>
<path d="M182.958 90.8412L174.92 86.1749C175.26 86.0303 175.61 85.9102 175.967 85.8154L184.005 90.4816C183.65 90.5836 183.301 90.7037 182.958 90.8412Z" fill="#6EAFF9"/>
<path d="M184.005 90.4816L175.967 85.8154C176.229 85.7395 176.496 85.6807 176.766 85.6396L184.804 90.2979C184.535 90.3393 184.268 90.3953 184.005 90.4657" fill="#6EAFF9"/>
<path d="M184.803 90.2979L176.765 85.6236C176.984 85.5908 177.206 85.5695 177.428 85.5597L185.466 90.234C185.244 90.2437 185.023 90.2651 184.803 90.2979Z" fill="#6EAFF9"/>
<path d="M185.466 90.2499L177.428 85.5757C177.625 85.5635 177.822 85.5635 178.019 85.5757L186.049 90.2499H185.458" fill="#6EAFF9"/>
<path d="M186.05 90.25L178.06 85.5837C178.242 85.5922 178.424 85.6136 178.603 85.6476L186.601 90.2979C186.425 90.2979 186.242 90.2499 186.058 90.234" fill="#6EAFF9"/>
<path d="M186.601 90.2979L178.562 85.6316C178.733 85.6557 178.901 85.6931 179.066 85.7435L187.104 90.4177C186.938 90.3693 186.77 90.3293 186.601 90.2979Z" fill="#6EAFF9"/>
<path d="M187.105 90.4337L179.066 85.7595C179.226 85.807 179.384 85.863 179.538 85.9272L187.576 90.6015C187.422 90.5373 187.265 90.4812 187.105 90.4337Z" fill="#6EAFF9"/>
<path d="M187.576 90.6015L179.538 85.9272C179.695 85.9905 179.847 86.0653 179.994 86.151L188.024 90.8172C187.879 90.7373 187.729 90.6653 187.576 90.6015Z" fill="#6EAFF9"/>
<path d="M188.023 90.8172L179.993 86.1509H180.041L188.079 90.8252H188.023" fill="#6EAFF9"/>
<path d="M172.369 83.5941L164.379 78.9278C164.791 78.7628 165.213 78.6214 165.641 78.5043L173.679 83.1786C173.249 83.2941 172.825 83.4328 172.409 83.5941" fill="#6EAFF9"/>
<path d="M173.64 83.1786L165.602 78.5044C165.964 78.4058 166.332 78.3285 166.704 78.2726L174.742 82.9389C174.37 82.9967 174.002 83.0767 173.64 83.1786Z" fill="#6EAFF9"/>
<path d="M174.742 82.9389L166.704 78.3126C167.024 78.2647 167.335 78.2327 167.639 78.2167L175.661 82.851C175.348 82.8605 175.036 82.8899 174.726 82.9389" fill="#6EAFF9"/>
<path d="M175.661 82.851L167.671 78.1768C167.951 78.1768 168.23 78.1768 168.47 78.1768L176.508 82.851C176.242 82.8325 175.975 82.8325 175.709 82.851" fill="#6EAFF9"/>
<path d="M176.508 82.859L168.47 78.1848C168.725 78.1848 168.973 78.2327 169.221 78.2726L177.259 82.9469C177.011 82.9014 176.76 82.8721 176.508 82.859Z" fill="#6EAFF9"/>
<path d="M177.259 82.9469L169.221 78.3126C169.452 78.3526 169.684 78.4085 169.916 78.4724L177.954 83.1067C177.726 83.0383 177.494 82.985 177.259 82.9469Z" fill="#6EAFF9"/>
<path d="M177.954 83.1067L169.916 78.4324C170.136 78.4964 170.352 78.5738 170.563 78.6642L178.601 83.3304C178.39 83.244 178.174 83.1693 177.954 83.1067Z" fill="#6EAFF9"/>
<path d="M178.602 83.3305L170.563 78.6642C170.779 78.7492 170.987 78.8507 171.187 78.9678L179.177 83.6341C178.978 83.5202 178.773 83.4188 178.562 83.3305" fill="#6EAFF9"/>
<path d="M179.217 83.634L171.227 78.9678H171.29L179.329 83.642L179.257 83.6021" fill="#6EAFF9"/>
<path d="M154.959 76.2511L146.896 71.5849C147.697 71.118 148.527 70.7043 149.381 70.3464L157.42 75.0206C156.564 75.3741 155.734 75.7852 154.935 76.2511" fill="#6EAFF9"/>
<path d="M157.443 75.0206L149.405 70.3224C150.065 70.0445 150.743 69.8123 151.435 69.6273L159.473 74.3175C158.782 74.509 158.104 74.7438 157.443 75.0206Z" fill="#6EAFF9"/>
<path d="M159.474 74.3175L151.436 69.6512C151.948 69.5105 152.468 69.3985 152.994 69.3156L161.032 73.9899C160.506 74.0661 159.986 74.1756 159.474 74.3175Z" fill="#6EAFF9"/>
<path d="M161.031 73.9899L152.993 69.3156C153.425 69.2501 153.859 69.2074 154.296 69.1878L162.334 73.8541C161.897 73.8764 161.463 73.9218 161.031 73.9899Z" fill="#6EAFF9"/>
<path d="M162.333 73.8541L154.295 69.1878C154.681 69.1678 155.068 69.1678 155.454 69.1878L163.492 73.8621C163.106 73.8419 162.719 73.8419 162.333 73.8621" fill="#6EAFF9"/>
<path d="M163.492 73.8701L155.454 69.1958C155.808 69.2177 156.16 69.2604 156.509 69.3236L164.547 73.9899C164.201 73.9367 163.849 73.8967 163.492 73.8701Z" fill="#6EAFF9"/>
<path d="M164.546 73.9899L156.484 69.3236C156.816 69.3774 157.145 69.4521 157.467 69.5473L165.505 74.2216C165.183 74.1237 164.855 74.0463 164.523 73.9899" fill="#6EAFF9"/>
<path d="M165.529 74.2216L157.491 69.5234C157.807 69.6122 158.117 69.7216 158.418 69.851L166.456 74.5172C166.153 74.394 165.844 74.2874 165.529 74.1976" fill="#6EAFF9"/>
<path d="M166.456 74.5412L158.418 69.8749C158.719 70.0026 159.012 70.1466 159.297 70.3064L167.335 74.9727C167.05 74.8129 166.757 74.6689 166.456 74.5412Z" fill="#6EAFF9"/>
<path d="M167.335 74.9727L159.297 70.3224L159.393 70.3783L167.431 75.0446L167.335 74.9887" fill="#6EAFF9"/>
<path d="M138.403 99.4706L130.365 94.7963C130.437 94.5167 130.509 94.245 130.589 93.9973L138.627 98.6716C138.547 98.9432 138.475 99.2229 138.403 99.4706Z" fill="#6EAFF9"/>
<path d="M138.627 98.6397L130.589 93.9654C130.757 93.3661 130.94 92.7749 131.132 92.1756L139.17 96.8419C138.971 97.4411 138.795 98.0404 138.627 98.6397Z" fill="#6EAFF9"/>
<path d="M139.17 96.8419L131.132 92.1756C131.324 91.6243 131.515 91.0729 131.731 90.5216L139.769 95.1879C139.556 95.7206 139.356 96.2719 139.17 96.8419Z" fill="#6EAFF9"/>
<path d="M139.77 95.1879L131.716 90.5216C131.916 89.9943 132.131 89.4749 132.355 88.9236L140.393 93.5979C140.169 94.1172 139.954 94.6446 139.754 95.1959" fill="#6EAFF9"/>
<path d="M140.409 93.6218L132.371 88.9475C132.595 88.4441 132.827 87.9328 133.066 87.4294L141.104 92.1036C140.865 92.607 140.633 93.1104 140.409 93.6218Z" fill="#6EAFF9"/>
<path d="M141.105 92.1037L133.066 87.4294C133.306 86.934 133.562 86.4306 133.865 85.9432L141.904 90.6095C141.64 91.1049 141.384 91.6003 141.144 92.1037" fill="#6EAFF9"/>
<path d="M141.863 90.6095L133.825 85.9432C134.089 85.4398 134.361 84.9524 134.624 84.465L142.662 89.1313C142.375 89.6187 142.103 90.1141 141.863 90.6095Z" fill="#6EAFF9"/>
<path d="M142.687 89.1313L134.648 84.4651C134.944 83.9617 135.24 83.4663 135.559 82.9789L143.589 87.6452C143.278 88.1326 142.974 88.6279 142.687 89.1313Z" fill="#6EAFF9"/>
<path d="M143.589 87.6451L135.559 82.9788C135.878 82.4675 136.222 81.9561 136.565 81.4607L144.604 86.135C144.26 86.6303 143.916 87.1337 143.589 87.6451Z" fill="#6EAFF9"/>
<path d="M144.604 86.135L136.565 81.4607C136.949 80.928 137.34 80.3954 137.74 79.8627L145.778 84.5289C145.371 85.0483 144.979 85.5757 144.604 86.127" fill="#6EAFF9"/>
<path d="M145.778 84.545L137.74 79.9106C138.196 79.3194 138.667 78.7521 139.147 78.1927L147.185 82.867C146.705 83.4183 146.234 83.9936 145.778 84.5769" fill="#6EAFF9"/>
<path d="M147.185 82.8351L139.146 78.1608C139.759 77.447 140.398 76.7678 141.064 76.1233L149.094 80.7896C148.439 81.4448 147.8 82.1239 147.185 82.8351Z" fill="#6EAFF9"/>
<path d="M149.095 80.7895L141.064 76.1233C142.816 74.3676 144.784 72.8425 146.921 71.5848L154.959 76.2511C152.823 77.5133 150.853 79.038 149.095 80.7895Z" fill="#6EAFF9"/>
<path d="M116.27 129.234L108.231 124.56L109.454 123.849L117.492 128.523L116.27 129.234Z" fill="#6EAFF9"/>
<path d="M109.958 150.456L101.92 145.79C100.322 144.855 99.3068 142.865 99.2988 140.029C99.2998 139.444 99.3398 138.859 99.4187 138.279L107.457 142.945C107.378 143.528 107.338 144.115 107.337 144.703C107.337 147.532 108.344 149.497 109.958 150.456Z" fill="#6EAFF9"/>
<path d="M107.456 142.945L99.418 138.279C99.4659 137.864 99.5378 137.48 99.6257 137.033L107.664 141.707C107.576 142.122 107.504 142.506 107.456 142.945Z" fill="#6EAFF9"/>
<path d="M107.664 141.707L99.626 137.033C99.6979 136.689 99.7858 136.345 99.8817 136.01L107.92 140.676C107.824 141.02 107.736 141.363 107.664 141.707Z" fill="#6EAFF9"/>
<path d="M107.92 140.676L99.8818 136.01C99.9617 135.698 100.058 135.395 100.161 135.091L108.2 139.765C108.096 140.069 108 140.372 107.92 140.676Z" fill="#6EAFF9"/>
<path d="M108.2 139.765L100.162 135.091C100.258 134.811 100.354 134.524 100.466 134.244L108.544 138.918C108.432 139.198 108.336 139.478 108.24 139.765" fill="#6EAFF9"/>
<path d="M108.543 138.918L100.465 134.244C100.569 133.98 100.673 133.709 100.792 133.445L108.831 138.111C108.711 138.383 108.607 138.647 108.503 138.91" fill="#6EAFF9"/>
<path d="M108.831 138.111L100.793 133.445C100.905 133.181 101.025 132.918 101.153 132.646L109.143 137.32C109.023 137.576 108.903 137.84 108.791 138.119" fill="#6EAFF9"/>
<path d="M109.183 137.336L101.192 132.662C101.312 132.406 101.44 132.151 101.576 131.863L109.614 136.529C109.478 136.785 109.35 137.041 109.223 137.328" fill="#6EAFF9"/>
<path d="M109.574 136.569L101.536 131.903C101.672 131.647 101.808 131.391 101.96 131.144L109.95 135.818C109.806 136.066 109.67 136.321 109.534 136.569" fill="#6EAFF9"/>
<path d="M109.989 135.842L101.999 131.168C102.143 130.912 102.303 130.664 102.462 130.369L110.453 135.043C110.293 135.291 110.141 135.546 109.989 135.802" fill="#6EAFF9"/>
<path d="M110.453 135.043L102.463 130.369C102.631 130.113 102.798 129.849 102.974 129.57L110.94 134.284C110.765 134.54 110.589 134.795 110.421 135.083" fill="#6EAFF9"/>
<path d="M110.94 134.284L102.95 129.61L103.549 128.811L111.572 133.445C111.364 133.709 111.172 133.98 110.972 134.244" fill="#6EAFF9"/>
<path d="M111.571 133.445L103.533 128.771C103.773 128.467 104.013 128.171 104.26 127.884L112.298 132.558C112.051 132.846 111.811 133.141 111.571 133.445Z" fill="#6EAFF9"/>
<path d="M112.299 132.59L104.261 127.916C104.58 127.556 104.908 127.205 105.244 126.877L113.282 131.543C112.946 131.879 112.618 132.222 112.299 132.59Z" fill="#6EAFF9"/>
<path d="M113.282 131.543L105.244 126.877C106.139 125.976 107.146 125.195 108.24 124.552L116.279 129.226C115.186 129.869 114.179 130.647 113.282 131.543Z" fill="#6EAFF9"/>
<path d="M117.5 128.523L109.462 123.857C109.406 123.296 109.38 122.734 109.382 122.171C109.383 121.209 109.447 120.248 109.574 119.294L117.564 123.969C117.444 124.92 117.383 125.878 117.38 126.837C117.378 127.403 117.405 127.968 117.46 128.531" fill="#6EAFF9"/>
<path d="M117.603 123.961L109.613 119.286C109.701 118.615 109.813 117.936 109.957 117.249L117.995 121.923C117.851 122.602 117.731 123.281 117.643 123.961" fill="#6EAFF9"/>
<path d="M117.956 121.923L109.918 117.249C110.038 116.69 110.182 116.13 110.333 115.563L118.372 120.237C118.212 120.797 118.076 121.364 117.956 121.923Z" fill="#6EAFF9"/>
<path d="M118.371 120.237L110.333 115.563C110.469 115.067 110.621 114.564 110.788 114.069L118.827 118.743C118.659 119.238 118.507 119.734 118.371 120.237Z" fill="#6EAFF9"/>
<path d="M118.826 118.743L110.788 114.069C110.948 113.605 111.108 113.142 111.283 112.686L119.322 117.353C119.146 117.816 118.978 118.28 118.826 118.743Z" fill="#6EAFF9"/>
<path d="M119.321 117.353L111.283 112.67C111.459 112.223 111.635 111.784 111.827 111.352L119.865 116.018C119.673 116.458 119.497 116.897 119.321 117.337" fill="#6EAFF9"/>
<path d="M119.865 116.034L111.827 111.368C112.011 110.937 112.203 110.513 112.41 110.09L120.449 114.764C120.241 115.187 120.049 115.611 119.865 116.034Z" fill="#6EAFF9"/>
<path d="M120.448 114.764L112.41 110.09C112.61 109.674 112.826 109.251 113.041 108.843L121.08 113.509C120.864 113.925 120.648 114.308 120.448 114.764Z" fill="#6EAFF9"/>
<path d="M121.079 113.509L113.041 108.843C113.265 108.428 113.496 108.044 113.728 107.605L121.766 112.279C121.535 112.686 121.303 113.078 121.079 113.509Z" fill="#6EAFF9"/>
<path d="M121.767 112.279L113.729 107.605C113.976 107.181 114.232 106.806 114.528 106.358L122.526 111.072C122.27 111.48 122.014 111.871 121.727 112.319" fill="#6EAFF9"/>
<path d="M122.526 111.072L114.488 106.358C114.768 105.935 115.048 105.511 115.343 105.096L123.381 109.762C123.086 110.178 122.806 110.561 122.526 111.032" fill="#6EAFF9"/>
<path d="M123.381 109.762L115.343 105.096C115.654 104.64 115.982 104.201 116.318 103.769L124.356 108.436C124.02 108.867 123.693 109.315 123.381 109.762Z" fill="#6EAFF9"/>
<path d="M124.356 108.436L116.317 103.769C116.701 103.266 117.116 102.787 117.508 102.315L125.546 106.989C125.139 107.453 124.747 107.94 124.356 108.436Z" fill="#6EAFF9"/>
<path d="M125.546 106.989L117.508 102.283C118.027 101.692 118.563 101.117 119.106 100.573L127.144 105.248C126.593 105.791 126.057 106.358 125.546 106.957" fill="#6EAFF9"/>
<path d="M127.151 105.28L119.113 100.605C120.582 99.1381 122.23 97.8629 124.019 96.8099C124.691 96.4143 125.391 96.0672 126.113 95.7712L134.151 100.437C133.432 100.74 132.733 101.087 132.057 101.476C130.269 102.533 128.62 103.811 127.151 105.28Z" fill="#6EAFF9"/>
<path d="M134.151 100.437L126.121 95.7712C126.677 95.5377 127.248 95.3428 127.831 95.1879L135.853 99.8862C135.274 100.045 134.706 100.24 134.151 100.469" fill="#6EAFF9"/>
<path d="M135.853 99.8861L127.823 95.2198C128.244 95.1018 128.67 95.0084 129.102 94.9402L137.14 99.6145C136.706 99.6806 136.277 99.7713 135.853 99.8861Z" fill="#6EAFF9"/>
<path d="M137.14 99.5825L129.102 94.9083C129.462 94.8546 129.824 94.8199 130.188 94.8044L138.226 99.4707C137.862 99.489 137.5 99.5263 137.14 99.5825Z" fill="#6EAFF9"/>
<path d="M138.227 99.4707L130.188 94.8044H130.364L138.402 99.4787H138.227" fill="#6EAFF9"/>
<path d="M154.959 76.2511C163.82 71.1374 171.171 74.4613 172.369 83.5941C176.596 81.9322 180.359 83.0029 182.037 86.95C182.543 88.1992 182.83 89.5265 182.884 90.8732C187.271 89.0115 190.667 91.3606 190.683 96.5862C190.683 102.275 186.688 109.211 181.75 112.063L116.334 149.833C111.38 152.693 107.353 150.4 107.337 144.703C107.321 139.006 111.332 132.087 116.278 129.226L117.5 128.523C117.445 127.96 117.418 127.395 117.421 126.829C117.421 117.513 123.949 106.158 132.059 101.476C133.974 100.292 136.155 99.6029 138.403 99.4706C140.744 90.1781 147.256 80.7097 154.959 76.2511Z" fill="#4994E9"/>
<path d="M156.229 89.411L166.792 99.7103C166.852 99.7625 166.898 99.8285 166.926 99.9026C166.955 99.9766 166.965 100.056 166.955 100.135C166.946 100.214 166.917 100.289 166.872 100.354C166.827 100.419 166.767 100.473 166.696 100.509L161.814 103.33C161.738 103.373 161.675 103.436 161.631 103.512C161.588 103.588 161.566 103.674 161.567 103.761V117.728L150.005 124.4L149.965 111C149.966 110.914 149.943 110.829 149.901 110.754C149.858 110.68 149.796 110.617 149.721 110.574C149.646 110.531 149.561 110.509 149.475 110.509C149.389 110.51 149.304 110.533 149.23 110.577L145.618 112.654C145.528 112.708 145.423 112.731 145.319 112.72C145.215 112.709 145.118 112.665 145.04 112.594C144.963 112.523 144.911 112.429 144.892 112.327C144.872 112.224 144.886 112.117 144.931 112.023L155.398 89.5788C155.427 89.4985 155.476 89.4271 155.541 89.3713C155.605 89.3156 155.683 89.2775 155.767 89.2606C155.85 89.2437 155.937 89.2487 156.018 89.275C156.099 89.3014 156.172 89.3482 156.229 89.411Z" fill="white"/>
</g>
<path d="M468.288 35.0112C462.132 31.5486 454.615 31.5486 448.459 35.0114L378.981 74.0926H372.761V77.6636C372.757 80.5346 374.19 83.4072 377.057 85.0202L450.111 126.113C455.241 128.999 461.505 128.999 466.635 126.113L539.689 85.0202C542.557 83.4072 543.988 80.5346 543.984 77.6636H543.986V74.0926H537.766L468.288 35.0112Z" fill="#C6B8FC"/>
<path d="M468.288 34.6211C462.132 31.1585 454.615 31.1585 448.459 34.6213L378.981 73.7025H372.761V76.6681C372.757 79.5391 374.19 82.4117 377.057 84.0247L450.111 125.118C455.241 128.003 461.505 128.003 466.635 125.118L539.689 84.0247C542.557 82.4117 543.988 79.5391 543.984 76.6681H543.986V73.7025H537.766L468.288 34.6211Z" fill="#EEECF6"/>
<path fill-rule="evenodd" clip-rule="evenodd" d="M468.286 24.5824C462.13 21.1196 454.614 21.1196 448.458 24.5824L377.056 64.7458C371.329 67.9671 371.329 76.2124 377.056 79.4337L450.11 120.527C455.24 123.412 461.504 123.412 466.634 120.527L539.688 79.4337C545.415 76.2124 545.415 67.9671 539.688 64.7458L468.286 24.5824Z" fill="#FAF9FC" stroke="white" stroke-width="0.757576"/>
<g clip-path="url(#clip2_719_7)">
<path d="M465.316 7.80099L452.852 0.605225L444.356 5.54098L456.813 12.7367L469.27 19.9325L477.773 14.9892L465.316 7.80099Z" fill="#6EAFF9"/>
<path d="M469.27 19.9325L477.773 14.9665C483.117 28.708 489.867 33.6513 490.177 33.9083L481.681 38.8516C481.363 38.6173 474.621 33.674 469.27 19.9325Z" fill="#0D3885"/>
<path d="M489.957 33.7723L489.61 33.4926L489.171 33.0996C489.013 32.9635 488.839 32.8048 488.657 32.6234C488.476 32.442 488.294 32.2757 488.098 32.0716L487.516 31.4669L486.926 30.8093L486.314 30.0913C486.102 29.8343 485.883 29.5697 485.657 29.2825C485.43 28.9953 485.165 28.6476 484.901 28.3074C484.538 27.8161 484.145 27.2946 483.79 26.7353C483.223 25.8963 482.641 24.9817 482.051 23.9764C481.688 23.3566 481.295 22.699 480.955 22.0112C480.703 21.5425 480.451 21.0588 480.199 20.5599C479.988 20.1291 479.776 19.6907 479.564 19.2371C479.353 18.7836 479.156 18.3604 478.952 17.8993C478.748 17.4382 478.551 16.9771 478.355 16.5009C478.158 16.0248 477.954 15.5183 477.758 14.9892L469.27 19.9325C469.474 20.439 469.67 20.9378 469.874 21.4443C470.078 21.9507 470.275 22.3891 470.471 22.8426C470.668 23.2961 470.88 23.7496 471.084 24.188L471.719 25.5032C471.97 26.0071 472.222 26.4909 472.474 26.9544C472.837 27.6423 473.23 28.2999 473.57 28.9197C474.16 29.925 474.742 30.8471 475.301 31.6786C475.679 32.2379 476.057 32.767 476.412 33.2508C476.669 33.5985 476.919 33.9235 477.168 34.2334C477.418 34.5433 477.607 34.7851 477.818 35.0346C478.03 35.284 478.234 35.5259 478.438 35.7526L479.028 36.4102C479.232 36.6294 479.421 36.8335 479.61 37.0225L480.161 37.5667L480.675 38.0505L481.121 38.4359L481.469 38.7156L481.688 38.8895L490.184 33.9461L489.957 33.7723Z" fill="#8CC1FD"/>
<path d="M481.68 38.8819C486.601 72.5705 468.362 79.3354 456.624 79.804C444.931 65.8131 426.79 38.0353 431.885 10.1291C432.24 10.2802 438.952 13.0769 444.356 5.54855L456.813 12.7367L469.269 19.9325C474.621 33.674 481.363 38.6173 481.68 38.8819Z" fill="#4994E9"/>
<path d="M447.644 5.027C447.455 5.11015 447.273 5.18574 447.092 5.24621L446.623 5.40493L446.397 5.47296L445.724 5.63168C445.414 5.69215 445.112 5.72995 444.817 5.76019H444.567H444.023H443.804C443.615 5.76019 443.426 5.76019 443.252 5.76019H443.131C442.92 5.76019 442.723 5.7224 442.534 5.69216C442.481 5.69634 442.428 5.69634 442.375 5.69216L441.997 5.63168L441.809 5.5939L441.521 5.52587H441.355L441.113 5.45785L440.985 5.42004L440.758 5.34445H440.69L440.471 5.26132H440.418L431.922 10.1971H431.982L432.194 10.2727H432.247L432.466 10.3407H432.527H432.595L432.844 10.4087H432.942H433.003L433.298 10.4692H433.434H433.479L433.864 10.5372H433.993L434.598 10.5977H434.719H435.263H435.49H436.034H436.177H436.283C436.585 10.5723 436.886 10.5294 437.183 10.4692C437.409 10.4238 437.636 10.3709 437.87 10.3029L438.097 10.2349L438.483 10.1139H438.566L439.118 9.88716L439.39 9.77379C439.672 9.64781 439.952 9.50419 440.229 9.34295L448.725 4.39963C448.453 4.56051 448.173 4.70686 447.886 4.83804L447.644 5.027Z" fill="#6EAFF9"/>
<path d="M491 44.9363V44.3694C491 43.9083 491 43.4473 491 42.9786V42.6687V42.2681C491 41.8146 490.962 41.3535 490.939 40.8849C490.939 40.7337 490.939 40.5901 490.939 40.4389V40.1744C490.939 39.6075 490.856 39.0255 490.803 38.4359C490.803 38.3225 490.803 38.2092 490.803 38.0882C490.803 37.9673 490.803 38.0429 490.803 38.0202C490.728 37.2643 490.645 36.5085 490.546 35.7526C490.546 35.6997 490.546 35.6468 490.546 35.5939C490.478 35.0497 490.403 34.5055 490.32 33.9537L481.824 38.897C481.914 39.5017 481.99 40.0988 482.066 40.6959C482.164 41.4518 482.247 42.2077 482.323 42.9635C482.323 43.1071 482.323 43.2432 482.323 43.3868C482.376 43.9764 482.428 44.5508 482.466 45.1253C482.466 45.3596 482.466 45.5939 482.504 45.8358C482.504 46.2968 482.557 46.7579 482.572 47.2114V47.9219C482.572 48.3981 482.572 48.8592 482.572 49.3203C482.572 49.5092 482.572 49.6982 482.572 49.8796C482.572 50.5145 482.572 51.1419 482.527 51.7466C482.527 51.8222 482.527 51.8902 482.527 51.9582C482.527 52.51 482.466 53.0466 482.428 53.5757C482.428 53.7723 482.428 53.9537 482.376 54.1426C482.338 54.5659 482.3 54.9741 482.247 55.3822C482.247 55.5712 482.247 55.7526 482.187 55.934C482.111 56.5085 482.028 57.0754 481.93 57.6271C481.93 57.6271 481.93 57.6725 481.93 57.6876C481.824 58.2772 481.71 58.8365 481.589 59.3959C481.589 59.5319 481.521 59.668 481.491 59.8116C481.348 60.4314 481.189 61.0361 481.023 61.6181C480.826 62.2908 480.607 62.9333 480.372 63.5606C480.352 63.6352 480.327 63.7084 480.297 63.7798C480.017 64.5357 479.707 65.2462 479.382 65.934C479.37 65.9681 479.355 66.0011 479.337 66.0323C479.133 66.4631 478.914 66.8788 478.694 67.287L478.513 67.6045C478.332 67.9295 478.143 68.2394 477.946 68.5493L477.787 68.8138C477.546 69.1766 477.304 69.5697 477.032 69.8796C476.983 69.9533 476.93 70.0239 476.873 70.0912C476.666 70.3734 476.455 70.6455 476.238 70.9076L476.019 71.1797C475.754 71.4896 475.49 71.7844 475.225 72.0716V72.1094C474.945 72.4042 474.658 72.6838 474.371 72.9635L474.122 73.1903C473.895 73.4019 473.653 73.6135 473.419 73.8176L473.214 73.9915C472.912 74.2333 472.61 74.4752 472.307 74.702L472.096 74.8532C471.846 75.0346 471.597 75.2084 471.34 75.3747L471.075 75.5485C470.758 75.7602 470.441 75.9567 470.123 76.1457L478.619 71.2024C478.944 71.0209 479.261 70.8169 479.579 70.6128L479.836 70.4389C480.093 70.2727 480.35 70.0912 480.592 69.9098L480.796 69.7662C481.098 69.5319 481.408 69.2976 481.703 69.0481L481.907 68.8743C482.149 68.6778 482.383 68.4661 482.617 68.2469L482.859 68.0202C483.146 67.7481 483.434 67.4609 483.713 67.1661C483.985 66.8788 484.25 66.5765 484.469 66.2742L484.688 66.002C484.905 65.735 485.117 65.4629 485.323 65.1857C485.384 65.1177 485.437 65.0421 485.49 64.9741C485.739 64.6264 485.981 64.2711 486.246 63.9008L486.298 63.8252C486.298 63.7647 486.374 63.6967 486.412 63.6438C486.601 63.3339 486.79 63.0164 486.971 62.6914L487.153 62.3739C487.379 61.9733 487.591 61.5576 487.803 61.1192C487.8 61.0966 487.8 61.0738 487.803 61.0512C488.128 60.3709 488.43 59.6528 488.71 58.9046V58.8365C488.724 58.785 488.742 58.7345 488.762 58.6853C488.989 58.058 489.208 57.4155 489.405 56.7428C489.571 56.1608 489.73 55.5561 489.874 54.9363C489.874 54.8607 489.911 54.7851 489.934 54.7095C489.957 54.6339 489.934 54.581 489.934 54.513C490.055 53.9612 490.176 53.3943 490.274 52.8123C490.274 52.8123 490.274 52.767 490.274 52.7519C490.365 52.2001 490.448 51.6332 490.524 51.0587C490.524 50.9907 490.524 50.9151 490.524 50.8395C490.524 50.764 490.524 50.6203 490.524 50.5145C490.569 50.1064 490.614 49.6906 490.652 49.2749C490.652 49.154 490.652 49.033 490.652 48.9121C490.652 48.7912 490.652 48.7761 490.652 48.708C490.697 48.1789 490.728 47.6423 490.758 47.0905C490.758 47.03 490.758 46.9696 490.758 46.9091C490.977 46.191 490.992 45.5712 491 44.9363Z" fill="#6EAFF9"/>
<path d="M463.139 40.9076V36.5916C463.045 34.9251 462.56 33.3041 461.724 31.8597C460.887 30.4153 459.723 29.188 458.324 28.2772L455.21 26.4782C452.542 24.9665 450.372 26.1759 450.365 29.2371V33.5531L448.785 32.646V41.807C448.785 46.8637 452.323 53.024 456.722 55.5636C461.121 58.1033 464.704 56.0625 464.719 51.0285V41.8675L463.139 40.9076ZM451.801 30.0383C451.801 27.8841 453.313 27.0149 455.21 28.0958L458.332 29.8947C459.318 30.5385 460.139 31.4058 460.727 32.4262C461.316 33.4467 461.655 34.5915 461.718 35.7677V40.0837L451.801 34.3543V30.0383ZM457.538 45.8584V48.7156C457.538 49.2296 457.168 49.4261 456.722 49.1691C456.485 49.0174 456.287 48.8115 456.145 48.5684C456.003 48.3252 455.921 48.0518 455.905 47.7708V44.9212C455.153 44.1202 454.708 43.0785 454.651 41.9809C454.651 40.6657 455.588 40.1366 456.737 40.7942C457.34 41.1873 457.843 41.7173 458.202 42.3412C458.562 42.9651 458.77 43.6653 458.808 44.3845C458.808 45.3747 458.286 45.9567 457.538 45.8584Z" fill="white"/>
</g>
<path d="M725.288 116.179C719.132 112.717 711.615 112.717 705.459 116.18L635.981 155.261H629.761V158.832C629.757 161.703 631.19 164.575 634.057 166.188L707.111 207.281C712.241 210.167 718.505 210.167 723.635 207.281L796.689 166.188C799.557 164.575 800.988 161.703 800.984 158.832H800.986V155.261H794.766L725.288 116.179Z" fill="#C6B8FC"/>
<path d="M725.288 115.789C719.132 112.327 711.615 112.327 705.459 115.79L635.981 154.871H629.761V157.836C629.757 160.707 631.19 163.58 634.057 165.193L707.111 206.286C712.241 209.171 718.505 209.171 723.635 206.286L796.689 165.193C799.557 163.58 800.988 160.707 800.984 157.836H800.986V154.871H794.766L725.288 115.789Z" fill="#EEECF6"/>
<path fill-rule="evenodd" clip-rule="evenodd" d="M725.286 105.751C719.13 102.288 711.614 102.288 705.458 105.751L634.056 145.914C628.329 149.135 628.329 157.381 634.056 160.602L707.11 201.695C712.24 204.581 718.504 204.581 723.634 201.695L796.688 160.602C802.415 157.381 802.415 149.135 796.688 145.914L725.286 105.751Z" fill="#FAF9FC" stroke="white" stroke-width="0.757576"/>
<path d="M690.388 146.844C690.204 146.588 690.105 146.28 690.105 145.965V139.463L731.955 133.875V145.086L746.335 147.018V153.746C746.219 154.576 745.223 155.305 743.75 155.532L740.355 156.069H742.181V162.556C742.181 162.872 742.082 163.179 741.898 163.436C741.714 163.692 741.454 163.884 741.155 163.985L732.99 168.703C732.222 169.091 731.374 169.293 730.513 169.293C729.653 169.293 728.804 169.091 728.036 168.703L725.546 167.261C723.484 167.754 721.384 168.078 719.269 168.231L718.365 170.197C717.853 171.271 715.94 171.913 714.066 171.625L702.913 169.895C701.45 169.67 700.45 168.949 700.325 168.126C700.308 168.012 700.308 167.895 700.325 167.778V164.987C699.838 164.749 699.359 164.493 698.89 164.221C698.149 163.795 697.435 163.322 696.754 162.805L693.346 163.329C691.485 163.618 689.559 162.989 689.061 161.901L686.073 155.453C685.99 155.279 685.95 155.104 685.949 154.932L685.948 148.393C685.948 148.393 690.572 147.101 690.388 146.844Z" fill="#3287E8"/>
<path d="M738.953 138.739L735.545 139.276C734.864 138.76 734.151 138.287 733.409 137.861C732.617 137.379 731.799 136.942 730.958 136.55L731.863 134.585C732.361 133.51 731.26 132.409 729.386 132.108L718.22 130.456C716.359 130.168 714.432 130.81 713.934 131.885L713.03 133.851C710.914 133.997 708.814 134.322 706.753 134.821L704.263 133.379C703.495 132.991 702.646 132.789 701.786 132.789C700.925 132.789 700.077 132.991 699.309 133.379L691.131 138.097C690.832 138.197 690.572 138.389 690.388 138.646C690.204 138.902 690.104 139.21 690.104 139.525C690.104 139.841 690.204 140.149 690.388 140.405C690.572 140.661 690.832 140.853 691.131 140.954L693.621 142.395C692.823 143.475 692.252 144.706 691.944 146.013L688.549 146.537C686.675 146.838 685.561 147.939 686.072 149.014L689.06 155.462C689.558 156.549 691.485 157.178 693.346 156.89L696.753 156.366C697.435 156.882 698.148 157.355 698.889 157.781C699.681 158.241 700.499 158.653 701.34 159.013L700.436 160.979C699.925 162.067 701.039 163.167 702.913 163.456L714.066 165.186C715.94 165.474 717.853 164.832 718.364 163.757L719.268 161.791C721.384 161.639 723.483 161.314 725.546 160.822L728.036 162.263C728.804 162.651 729.652 162.854 730.513 162.854C731.373 162.854 732.222 162.651 732.99 162.263L741.154 157.545C741.453 157.445 741.714 157.253 741.898 156.996C742.082 156.74 742.181 156.432 742.181 156.117C742.181 155.801 742.082 155.493 741.898 155.237C741.714 154.981 741.453 154.789 741.154 154.688L738.677 153.247C739.476 152.167 740.046 150.936 740.355 149.63L743.749 149.092C745.623 148.804 746.724 147.703 746.226 146.615L743.238 140.181C742.74 139.093 740.814 138.451 738.953 138.739Z" fill="#6EAFF9"/>
<circle r="6.43946" transform="matrix(0.866025 -0.5 0.866025 0.5 716.147 147.821)" fill="#0E1011"/>
<path d="M723.037 151.799C726.842 149.602 726.842 146.04 723.037 143.843C719.232 141.646 713.062 141.646 709.257 143.843C705.452 146.04 705.452 149.602 709.257 151.799C713.062 149.602 719.232 149.602 723.037 151.799Z" fill="#3187E9"/>
<path d="M723.038 151.799C723.821 151.347 724.443 150.837 724.904 150.293C719.672 147.829 712.624 147.829 707.393 150.293C707.853 150.837 708.475 151.347 709.258 151.799C713.063 153.996 719.233 153.996 723.038 151.799Z" fill="#F9F9FC"/>
<path d="M519.24 95.9026L553.881 115.903L539.232 124.36L615.875 168.61" stroke="url(#paint4_linear_719_7)"/>
<path d="M344.171 168.139L420.56 124.036L425.921 127.132L434.552 122.148L438.868 119.657" stroke="url(#paint5_linear_719_7)"/>
<path d="M306.069 183.852L405.855 126.241L401.292 123.606L412.568 117.096L423.843 110.586" stroke="url(#paint6_linear_719_7)"/>
<path d="M605.496 112.807L641.157 133.396L660.207 122.398L664.236 124.725L668.266 127.051" stroke="url(#paint7_linear_719_7)"/>
<path d="M251.677 201.499L204.067 174.011L185.018 185.009L179.638 181.903L174.259 178.797" stroke="url(#paint8_linear_719_7)"/>
<path d="M486.993 114.352L499.625 121.645L531.581 103.195" stroke="url(#paint9_linear_719_7)"/>
<path d="M808.808 116.281L796.176 108.988L764.22 127.438" stroke="url(#paint10_linear_719_7)"/>
<path d="M234.35 144.984L271.576 166.477L324.658 135.83" stroke="url(#paint11_linear_719_7)"/>
<path d="M0.616294 160.519L36.2779 181.109L55.3271 170.111L59.3567 172.437L63.3863 174.764L82.4355 163.766" stroke="url(#paint12_linear_719_7)"/>
<path d="M69.1367 171.163L116.746 198.65" stroke="url(#paint13_linear_719_7)"/>
<defs>
<linearGradient id="paint0_linear_719_7" x1="324.468" y1="112.308" x2="325.532" y2="164.103" gradientUnits="userSpaceOnUse">
<stop stop-color="#FFD231"/>
<stop offset="1" stop-color="#FCB23B"/>
</linearGradient>
<linearGradient id="paint1_linear_719_7" x1="323.348" y1="100.692" x2="323.348" y2="109.266" gradientUnits="userSpaceOnUse">
<stop stop-color="#FFD231"/>
<stop offset="1" stop-color="#FCB23B"/>
</linearGradient>
<linearGradient id="paint2_linear_719_7" x1="585.269" y1="70.174" x2="585.269" y2="125.174" gradientUnits="userSpaceOnUse">
<stop stop-color="#FFD231"/>
<stop offset="1" stop-color="#FCB23B"/>
</linearGradient>
<linearGradient id="paint3_linear_719_7" x1="583.269" y1="58.174" x2="583.269" y2="67.174" gradientUnits="userSpaceOnUse">
<stop stop-color="#FFD231"/>
<stop offset="1" stop-color="#FCB23B"/>
</linearGradient>
<linearGradient id="paint4_linear_719_7" x1="537.377" y1="99.0217" x2="601.363" y2="90.4398" gradientUnits="userSpaceOnUse">
<stop stop-color="#C6B8FC"/>
<stop offset="1" stop-color="#C6B8FC" stop-opacity="0"/>
</linearGradient>
<linearGradient id="paint5_linear_719_7" x1="451.047" y1="115.316" x2="456.413" y2="133.137" gradientUnits="userSpaceOnUse">
<stop stop-color="#C6B8FC"/>
<stop offset="1" stop-color="#C6B8FC" stop-opacity="0"/>
</linearGradient>
<linearGradient id="paint6_linear_719_7" x1="429.086" y1="105.269" x2="415.534" y2="89.7783" gradientUnits="userSpaceOnUse">
<stop stop-color="#C6B8FC"/>
<stop offset="1" stop-color="#C6B8FC" stop-opacity="0"/>
</linearGradient>
<linearGradient id="paint7_linear_719_7" x1="679.128" y1="123.762" x2="673.124" y2="98.4316" gradientUnits="userSpaceOnUse">
<stop stop-color="#C6B8FC"/>
<stop offset="1" stop-color="#C6B8FC" stop-opacity="0"/>
</linearGradient>
<linearGradient id="paint8_linear_719_7" x1="162.531" y1="181.587" x2="167.718" y2="213.244" gradientUnits="userSpaceOnUse">
<stop stop-color="#C6B8FC"/>
<stop offset="1" stop-color="#C6B8FC" stop-opacity="0"/>
</linearGradient>
<linearGradient id="paint9_linear_719_7" x1="502.971" y1="105.127" x2="509.287" y2="116.066" gradientUnits="userSpaceOnUse">
<stop stop-color="#C6B8FC"/>
<stop offset="1" stop-color="#C6B8FC"/>
</linearGradient>
<linearGradient id="paint10_linear_719_7" x1="775.275" y1="125.921" x2="804.676" y2="134.379" gradientUnits="userSpaceOnUse">
<stop stop-color="#C6B8FC"/>
<stop offset="1" stop-color="#C6B8FC" stop-opacity="0"/>
</linearGradient>
<linearGradient id="paint11_linear_719_7" x1="315.945" y1="117.801" x2="232.78" y2="146.25" gradientUnits="userSpaceOnUse">
<stop stop-color="#C6B8FC" stop-opacity="0"/>
<stop offset="1" stop-color="#C6B8FC"/>
</linearGradient>
<linearGradient id="paint12_linear_719_7" x1="77.4788" y1="162.836" x2="68.0735" y2="137.574" gradientUnits="userSpaceOnUse">
<stop stop-color="#C6B8FC"/>
<stop offset="1" stop-color="#C6B8FC" stop-opacity="0"/>
</linearGradient>
<linearGradient id="paint13_linear_719_7" x1="27.6007" y1="178.738" x2="32.7874" y2="210.396" gradientUnits="userSpaceOnUse">
<stop stop-color="#C6B8FC"/>
<stop offset="1" stop-color="#C6B8FC" stop-opacity="0"/>
</linearGradient>
<clipPath id="clip0_719_7">
<rect width="91.3839" height="81.8835" fill="white" transform="translate(99.2988 68.785)"/>
</clipPath>
<clipPath id="clip1_719_7">
<rect width="91.3839" height="81.8835" fill="white" transform="translate(99.2988 69.1798)"/>
</clipPath>
<clipPath id="clip2_719_7">
<rect width="60" height="79.1988" fill="white" transform="translate(431 0.605225)"/>
</clipPath>
</defs>
</svg>
