<svg width="40" height="25" viewBox="0 0 40 25" fill="none" xmlns="http://www.w3.org/2000/svg">
<path d="M14.5078 25C10.0232 22.2616 6.3498 18.5437 3.81763 14.1801C1.28546 9.8165 -0.0262188 4.94393 0.000397115 0L9.91623 0.0449752C9.89773 3.4814 10.8095 6.86822 12.5695 9.90126C14.3296 12.9343 16.8828 15.5186 20 17.422L14.5078 25Z" fill="#FFD231"/>
<path d="M34.7824 25C30.522 22.2616 27.0323 18.5437 24.6268 14.1801C22.2212 9.8165 20.9751 4.94393 21.0004 0L30.4204 0.0449752C30.4028 3.4814 31.269 6.86822 32.941 9.90126C34.6131 12.9343 37.0387 15.5186 40 17.422L34.7824 25Z" fill="#FFD231"/>
</svg>
