<svg width="213" height="138" viewBox="0 0 213 138" fill="none" xmlns="http://www.w3.org/2000/svg">
<path d="M212.178 87.416L176.079 121.264L129.798 41.1027L165.897 7.25488L212.178 87.416Z" fill="#F6BC27"/>
<path d="M165.999 7.42563C145.162 0.387758 119.047 -1.27244 90.0662 2.59842C61.0857 6.46929 30.1747 15.7464 0.189117 29.5725L9.24884 57.3886C31.0678 47.328 53.5601 40.5776 74.6476 37.761C95.7352 34.9443 114.738 36.1524 129.9 41.2735L165.999 7.42563Z" fill="#FFD231"/>
<path d="M120.828 117.751C99.7404 120.567 77.2481 127.318 55.4291 137.378L9.05408 57.0545C30.873 46.9939 53.4591 40.4063 74.5466 37.5897C95.6342 34.773 114.637 35.9811 129.799 41.1022L176.08 121.263C160.918 116.142 141.916 114.934 120.828 117.751Z" fill="#EBAD0E"/>
</svg>
