<svg width="451" height="341" viewBox="0 0 451 341" fill="none" xmlns="http://www.w3.org/2000/svg">
<path d="M142.616 0.0874023H39.3107C17.6981 0.0874023 0.177734 17.6078 0.177734 39.2203V300.954C0.177734 322.567 17.6982 340.087 39.3107 340.087H158.236C168.221 340.087 177.827 336.271 185.09 329.419L307.016 202.885C322.234 188.529 346.051 188.68 361.084 203.229L450.174 289.445L450.174 50.73L361.084 136.946C346.051 151.495 322.234 151.646 307.016 137.29L185.09 10.7553C177.827 3.9038 152.6 0.0874023 142.616 0.0874023Z" fill="url(#paint0_linear_747_6)"/>
<circle cx="113.142" cy="247.564" r="2.7405" transform="rotate(-15 113.142 247.564)" fill="#C6B8FC"/>
<circle cx="97.3564" cy="290.356" r="2.7405" transform="rotate(-15 97.3564 290.356)" fill="#C6B8FC"/>
<circle r="2.7405" transform="matrix(0.965926 0.258819 0.258819 -0.965926 134.317 75.0483)" fill="#C6B8FC"/>
<circle r="2.7405" transform="matrix(0.965926 0.258819 0.258819 -0.965926 153.356 320.356)" fill="#C6B8FC"/>
<circle cx="187.414" cy="209.529" r="2.7405" transform="rotate(-4.53993 187.414 209.529)" fill="#C6B8FC"/>
<circle cx="150.949" cy="258.949" r="2.7405" transform="rotate(-4.53993 150.949 258.949)" fill="#C6B8FC"/>
<circle cx="159.949" cy="236.949" r="2.7405" transform="rotate(-4.53993 159.949 236.949)" fill="#C6B8FC"/>
<circle cx="252.237" cy="148.59" r="2.7405" fill="#C6B8FC"/>
<circle cx="290.069" cy="160.467" r="2.7405" fill="#C6B8FC"/>
<circle r="2.7405" transform="matrix(1 0 0 -1 261.67 181.902)" fill="#C6B8FC"/>
<circle r="2.7405" transform="matrix(1 0 0 -1 228.74 121.74)" fill="#C6B8FC"/>
<circle r="2.7405" transform="matrix(1 0 0 -1 143.49 150.213)" fill="#C6B8FC"/>
<circle r="2.7405" transform="matrix(0.99773 0.0673366 0.0673366 -0.99773 92.1337 116.542)" fill="#C6B8FC"/>
<circle r="2.7405" transform="matrix(0.99773 0.0673366 0.0673366 -0.99773 37.9188 74.9188)" fill="#C6B8FC"/>
<circle cx="216.088" cy="170.087" r="7.4199" transform="rotate(15 216.088 170.087)" fill="#C6B8FC"/>
<circle cx="165.649" cy="57.341" r="7.06144" transform="rotate(15 165.649 57.341)" fill="#C6B8FC"/>
<circle cx="194.506" cy="104.506" r="3.67915" transform="rotate(15 194.506 104.506)" fill="#C6B8FC"/>
<circle cx="108.088" cy="203.087" r="7.4199" transform="rotate(15 108.088 203.087)" fill="#C6B8FC"/>
<circle cx="350.356" cy="169.356" r="2.7405" transform="rotate(15 350.356 169.356)" fill="#C6B8FC"/>
<circle r="2.7405" transform="matrix(0.866025 0.5 0.5 -0.866025 206.412 76.4655)" fill="#C6B8FC"/>
<circle r="2.7405" transform="matrix(0.965926 -0.258819 -0.258819 -0.965926 218.129 230.59)" fill="#C6B8FC"/>
<circle cx="207.355" cy="265.267" r="2.7405" transform="rotate(-24.0376 207.355 265.267)" fill="#C6B8FC"/>
<circle r="2.7405" transform="matrix(1 0 0 -1 137.674 190.773)" fill="#C6B8FC"/>
<circle r="4.27517" transform="matrix(-0.965926 -0.258819 -0.258819 0.965926 191.231 271.881)" fill="#C6B8FC"/>
<circle cx="108.4" cy="62.0906" r="4.27517" transform="rotate(175.46 108.4 62.0906)" fill="#C6B8FC"/>
<circle cx="7.27561" cy="157.157" r="4.27517" transform="rotate(-180 7.27561 157.157)" fill="#C6B8FC"/>
<circle r="4.27517" transform="matrix(-1 -4.81446e-09 -4.81446e-09 1 176.92 154.625)" fill="#C6B8FC"/>
<circle r="4.27517" transform="matrix(-1 -4.81446e-09 -4.81446e-09 1 247.276 118.275)" fill="#C6B8FC"/>
<circle r="4.27517" transform="matrix(-0.99773 -0.0673366 -0.0673366 0.99773 257.036 207.15)" fill="#C6B8FC"/>
<circle cx="64.7954" cy="228.149" r="4.27517" transform="rotate(-165 64.7954 228.149)" fill="#C6B8FC"/>
<circle cx="86.2368" cy="280.236" r="4.27517" transform="rotate(-165 86.2368 280.236)" fill="#C6B8FC"/>
<circle r="4.27517" transform="matrix(-0.965926 0.258819 0.258819 0.965926 60.4848 29.236)" fill="#C6B8FC"/>
<circle r="4.27517" transform="matrix(-0.965926 0.258819 0.258819 0.965926 315.237 170.236)" fill="#C6B8FC"/>
<circle r="4.27517" transform="matrix(-0.965926 0.258819 0.258819 0.965926 378.237 169.236)" fill="#C6B8FC"/>
<circle r="4.27517" transform="matrix(-0.965926 0.258819 0.258819 0.965926 60.4848 142.236)" fill="#C6B8FC"/>
<circle r="4.27517" transform="matrix(-1 -4.81446e-09 -4.81446e-09 1 185.992 91.3522)" fill="#C6B8FC"/>
<circle r="2.7405" transform="matrix(1 0 0 -1 402.74 168.74)" fill="#C6B8FC"/>
<defs>
<linearGradient id="paint0_linear_747_6" x1="0.177734" y1="134.032" x2="456.615" y2="134.032" gradientUnits="userSpaceOnUse">
<stop stop-color="#F9F8FB" stop-opacity="0"/>
<stop offset="0.35335" stop-color="#F7F5F9"/>
<stop offset="0.747258" stop-color="#F7F5F9"/>
<stop offset="1" stop-color="#F9F8FB" stop-opacity="0"/>
</linearGradient>
</defs>
</svg>
