<svg width="812" height="293" viewBox="0 0 812 293" fill="none" xmlns="http://www.w3.org/2000/svg">
<path d="M158.713 234.491L247.175 182.315L258.152 223.281L169.689 275.457L158.713 234.491Z" fill="#2571C7"/>
<path d="M214.453 173.668L247.272 182.462L158.81 234.638L125.99 225.844L214.453 173.668Z" fill="#4994E9"/>
<path d="M125.99 225.844L158.81 234.638L169.787 275.605L136.967 266.811L125.99 225.844Z" fill="#347FD6"/>
<path d="M258.877 232.063L361.421 226.337L352.359 267.77L249.816 273.495L258.877 232.063Z" fill="#DA850E"/>
<path d="M336.323 203.63L361.439 226.513L258.896 232.239L233.78 209.356L336.323 203.63Z" fill="#FCB23B"/>
<path d="M233.779 209.356L258.896 232.239L249.834 273.671L224.718 250.788L233.779 209.356Z" fill="#F6A21A"/>
<path d="M463.276 20.1094C455.843 32.9851 457.572 50.4483 468.085 68.6573C478.598 86.8663 497.033 104.33 519.335 117.205C541.636 130.081 565.977 137.314 587.003 137.314C608.029 137.314 624.018 130.081 631.451 117.205L592.566 94.7548C588.57 101.676 579.975 105.565 568.672 105.565C557.37 105.565 544.285 101.676 532.296 94.7548C520.308 87.8333 510.398 78.4458 504.747 68.6573C499.095 58.8689 498.166 49.4813 502.162 42.5599L463.276 20.1094Z" fill="#8C74EB"/>
<path d="M439.144 118.76C428.631 100.551 426.901 83.0881 434.335 70.2124L463.27 20.0957C455.836 32.9714 457.566 50.4346 468.079 68.6436C478.592 86.8526 497.027 104.316 519.328 117.192C541.63 130.067 565.971 137.301 586.997 137.301C608.023 137.301 624.011 130.067 631.445 117.192L602.51 167.308C595.076 180.184 579.088 187.417 558.062 187.417C537.036 187.417 512.695 180.184 490.393 167.308C468.092 154.433 449.657 136.969 439.144 118.76Z" fill="url(#paint0_linear_742_2)"/>
<path d="M787.766 193.176C796.621 189.681 803.226 183.094 806.971 174.023C810.716 164.951 811.48 153.688 809.192 141.274L789.808 135.16C791.473 144.193 790.917 152.389 788.192 158.99C785.467 165.591 780.661 170.384 774.217 172.926L787.766 193.176Z" fill="#FC8549"/>
<path d="M787.765 193.176L774.217 172.927L734.028 196.13L747.576 216.379L787.765 193.176Z" fill="#F77230"/>
<path d="M788.193 158.991C790.918 152.39 791.474 144.194 789.809 135.161L749.62 158.364C751.285 167.398 750.729 175.593 748.004 182.194C746.29 186.345 743.753 189.782 740.504 192.393L734.029 196.131C736.42 195.187 738.586 193.934 740.504 192.393L774.218 172.928C780.662 170.385 785.468 165.592 788.193 158.991Z" fill="#E5611E"/>
<defs>
<linearGradient id="paint0_linear_742_2" x1="544.125" y1="164.194" x2="478.417" y2="163.358" gradientUnits="userSpaceOnUse">
<stop stop-color="#5A41BE"/>
<stop offset="1" stop-color="#5D45BD"/>
</linearGradient>
</defs>
</svg>
