<svg width="23" height="24" viewBox="0 0 23 24" fill="none" xmlns="http://www.w3.org/2000/svg">
<path d="M2.42757 5.69707C4.30885 7.028 5.86533 8.78722 6.95319 10.8122C7.99801 12.757 8.57819 14.8868 8.64592 17.0192L5.06314 17.0192C5.04387 15.4037 4.61881 13.7844 3.82724 12.3109C3.03566 10.8375 1.90309 9.55737 0.534181 8.58892L2.42757 5.69707Z" fill="#FFD231"/>
<path d="M13.9178 23.6514C14.9451 21.6829 15.4835 19.446 15.4833 17.1473C15.4832 14.8486 14.9444 12.5623 13.9169 10.4996L10.8805 12.1513C11.6282 13.6522 12.0202 15.3159 12.0203 16.9885C12.0204 18.6611 11.6287 20.2888 10.8812 21.7211L13.9178 23.6514Z" fill="#FCB23B"/>
<path d="M21.8666 12.2299C21.772 10.0116 21.1198 7.80517 19.9703 5.81454C18.8208 3.82391 17.2111 2.11329 15.2899 0.840715L13.4861 3.78931C14.8841 4.71529 16.0554 5.96002 16.8918 7.4085C17.7283 8.85697 18.2028 10.4625 18.2716 12.0767L21.8666 12.2299Z" fill="#FC8549"/>
</svg>
