  <svg width="24" height="23" viewBox="0 0 24 23" fill="none" xmlns="http://www.w3.org/2000/svg">
<path d="M1.82785 22.4783C3.73247 21.337 5.36065 19.7114 6.56194 17.7516C7.76324 15.7918 8.49891 13.5611 8.70098 11.2655L5.24907 11.0866C5.10203 12.7569 4.56672 14.3802 3.6926 15.8062C2.81848 17.2322 1.63374 18.4151 0.247852 19.2456L1.82785 22.4783Z" fill="#FFD231"/>
<path d="M12.7423 19.4371C14.1521 17.7217 15.1386 15.6431 15.6107 13.3935C16.0828 11.1438 16.0253 8.79556 15.4434 6.56574L12.1325 7.55834C12.5558 9.18086 12.5977 10.8895 12.2542 12.5265C11.9107 14.1635 11.1928 15.6759 10.167 16.9242L12.7423 19.4371Z" fill="#FCB23B"/>
<path d="M23.0272 13.9154C23.7161 11.8046 23.8786 9.50958 23.4997 7.24235C23.1208 4.97511 22.2128 2.80881 20.8594 0.9436L18.1366 3.07298C19.1214 4.4302 19.7822 6.0065 20.0579 7.65625C20.3336 9.306 20.2153 10.976 19.714 12.5119L23.0272 13.9154Z" fill="#FC8549"/>
</svg>
