<svg width="24" height="22" viewBox="0 0 24 22" fill="none" xmlns="http://www.w3.org/2000/svg">
<path d="M22.3753 21.6092C20.4707 20.4679 18.8425 18.8423 17.6412 16.8825C16.4399 14.9227 15.7042 12.6919 15.5021 10.3963L18.9541 10.2174C19.1011 11.8878 19.6364 13.511 20.5105 14.9371C21.3846 16.3631 22.5694 17.546 23.9553 18.3764L22.3753 21.6092Z" fill="#FFD231"/>
<path d="M11.4608 18.5665C10.051 16.8511 9.06454 14.7725 8.59243 12.5228C8.12032 10.2732 8.17785 7.92495 8.7597 5.69514L12.0707 6.68774C11.6473 8.31026 11.6054 10.0189 11.9489 11.6559C12.2925 13.2929 13.0103 14.8053 14.0361 16.0535L11.4608 18.5665Z" fill="#FCB23B"/>
<path d="M1.1759 13.0458C0.487002 10.935 0.324495 8.63995 0.703392 6.37272C1.08229 4.10548 1.99037 1.93918 3.34374 0.073971L6.0665 2.20335C5.08173 3.56057 4.42096 5.13687 4.14526 6.78662C3.86956 8.43637 3.98781 10.1063 4.48908 11.6423L1.1759 13.0458Z" fill="#FC8549"/>
</svg>
